<?xml version="1.0" encoding="UTF-8" standalone="no"?>
<svg
   xmlns:dc="http://purl.org/dc/elements/1.1/"
   xmlns:cc="http://creativecommons.org/ns#"
   xmlns:rdf="http://www.w3.org/1999/02/22-rdf-syntax-ns#"
   xmlns:svg="http://www.w3.org/2000/svg"
   xmlns="http://www.w3.org/2000/svg"
   xmlns:sodipodi="http://sodipodi.sourceforge.net/DTD/sodipodi-0.dtd"
   xmlns:inkscape="http://www.inkscape.org/namespaces/inkscape"
   width="100"
   height="100"
   viewBox="0 0 26.458333 26.458335"
   version="1.1"
   id="svg8"
   inkscape:version="1.0 (4035a4fb49, 2020-05-01)"
   sodipodi:docname="BeeIcon.svg"
   inkscape:export-filename="C:\Users\GGPC\Desktop\Games\bee-game\Icons\BeeIcon2-50x50.png"
   inkscape:export-xdpi="48"
   inkscape:export-ydpi="48">
  <defs
     id="defs2" />
  <sodipodi:namedview
     id="base"
     pagecolor="#ffffff"
     bordercolor="#666666"
     borderopacity="1.0"
     inkscape:pageopacity="0.0"
     inkscape:pageshadow="2"
     inkscape:zoom="2.8"
     inkscape:cx="15.710626"
     inkscape:cy="65.643025"
     inkscape:document-units="px"
     inkscape:current-layer="layer1"
     inkscape:document-rotation="0"
     showgrid="false"
     units="px"
     inkscape:window-width="1274"
     inkscape:window-height="1009"
     inkscape:window-x="104"
     inkscape:window-y="0"
     inkscape:window-maximized="0" />
  <metadata
     id="metadata5">
    <rdf:RDF>
      <cc:Work
         rdf:about="">
        <dc:format>image/svg+xml</dc:format>
        <dc:type
           rdf:resource="http://purl.org/dc/dcmitype/StillImage" />
        <dc:title></dc:title>
      </cc:Work>
    </rdf:RDF>
  </metadata>
  <g
     inkscape:label="Layer 1"
     inkscape:groupmode="layer"
     id="layer1">
    <circle
       r="15.742708"
       cy="-97.412956"
       cx="52.916668"
       id="path848"
       style="fill:#333333;stroke:none;stroke-width:0.264583" />
    <ellipse
       ry="31.900158"
       rx="19.711458"
       cy="-59.457737"
       cx="52.916668"
       id="path844"
       style="fill:none;stroke:#333333;stroke-width:2.64583;stroke-miterlimit:4;stroke-dasharray:none" />
    <ellipse
       ry="10.583334"
       rx="13.229166"
       style="fill:#333333;stroke:none;stroke-width:0.264584"
       id="circle850"
       cx="52.916668"
       cy="-113.26311" />
    <path
       d="m 52.916152,-91.358122 a 19.711458,31.900157 0 0 0 -14.631149,10.52494 h 29.262814 a 19.711458,31.900157 0 0 0 -14.631149,-10.52494 19.711458,31.900157 0 0 1 -5.16e-4,0 z m -18.548739,21.108274 a 19.711458,31.900157 0 0 0 -1.161688,10.583334 h 39.421886 a 19.711458,31.900157 0 0 0 -1.161688,-10.583334 z m -0.09043,21.166667 a 19.711458,31.900157 0 0 0 3.779615,10.583334 h 29.720668 a 19.711458,31.900157 0 0 0 3.779097,-10.583334 z"
       style="fill:#333333;stroke:none;stroke-width:0.264583"
       id="ellipse868" />
    <path
       id="path860"
       d="m 45.691979,-96.050459 c 0,0 -44.3667413,9.888973 -42.7631246,26.459682 1.603618,16.570712 44.6340116,-1.336346 42.7631246,-26.459682 z"
       style="fill:none;stroke:#333333;stroke-width:2.64583;stroke-linecap:round;stroke-linejoin:round;stroke-miterlimit:4;stroke-dasharray:none;stroke-opacity:1" />
    <path
       style="fill:none;stroke:#333333;stroke-width:2.64583;stroke-linecap:round;stroke-linejoin:round;stroke-miterlimit:4;stroke-dasharray:none;stroke-opacity:1"
       d="m 60.141357,-96.050459 c 0,0 44.366743,9.888973 42.763123,26.459682 -1.60362,16.570712 -44.63401,-1.336346 -42.763123,-26.459682 z"
       id="path862" />
    <g
       style="stroke:#333333;stroke-width:2.64583;stroke-miterlimit:4;stroke-dasharray:none"
       transform="translate(0.82262917,-131.15774)"
       id="g898">
      <path
         style="fill:none;stroke:#333333;stroke-width:2.64583;stroke-linecap:round;stroke-linejoin:round;stroke-miterlimit:4;stroke-dasharray:none;stroke-opacity:1"
         d="M 56.885418,13.229167 66.145834,2.6458334 h 13.229167"
         id="path892"
         sodipodi:nodetypes="ccc" />
      <path
         sodipodi:nodetypes="ccc"
         id="path894"
         d="M 47.302657,13.229167 38.042241,2.6458334 H 24.813074"
         style="fill:none;stroke:#333333;stroke-width:2.64583;stroke-linecap:round;stroke-linejoin:round;stroke-miterlimit:4;stroke-dasharray:none;stroke-opacity:1" />
    </g>
    <path
       d="m 6.5874995,0 a 0.32207152,0.32207152 0 0 0 -0.321946,0.322324 0.32207152,0.32207152 0 0 0 0.321946,0.321946 h 3.07453 l 2.0572345,2.350872 a 3.220719,2.5765756 0 0 0 -1.71063,2.275766 3.220719,2.5765756 0 0 0 0.408126,1.255324 3.832656,3.832656 0 0 0 -1.0200625,2.6035 3.832656,3.832656 0 0 0 0.03812,0.53884 c -0.979422,0.28821 -2.212104,0.691334 -3.440382,1.203744 -1.342466,0.560048 -2.67884,1.246418 -3.678414,2.074094 -0.999574,0.827672 -1.68888597,1.834252 -1.57727197,2.987594 0.05572,0.575776 0.30899597,1.04593 0.69949997,1.354214 0.390504,0.308286 0.896372,0.45786 1.456872,0.492164 1.121002,0.0686 2.491346,-0.310912 3.83492,-1.00572 0.563392,-0.29135 1.123298,-0.64095 1.654772,-1.04057 -0.17884,0.827102 -0.276278,1.7132 -0.276278,2.635958 0,2.198378 0.546668,4.193052 1.453602,5.66079 0.9069325,1.467744 2.2010725,2.427494 3.6670905,2.427494 1.466018,0 2.760536,-0.95975 3.667468,-2.427494 0.906932,-1.467738 1.453602,-3.462412 1.453602,-5.66079 0,-0.922668 -0.09746,-1.80867 -0.276278,-2.635704 0.531332,0.399506 1.091004,0.749032 1.654268,1.040316 1.343574,0.694808 2.713918,1.07433 3.834918,1.00572 0.560502,-0.0343 1.066872,-0.18388 1.457378,-0.492164 0.390502,-0.308284 0.643278,-0.778438 0.698998,-1.354214 0.11162,-1.153342 -0.577572,-2.159922 -1.577148,-2.987594 -0.999574,-0.827676 -2.336074,-1.514046 -3.67854,-2.074094 -1.22823,-0.51239 -2.46071,-0.915536 -3.440004,-1.203744 a 3.832656,3.832656 0 0 0 0.03812,-0.53884 3.832656,3.832656 0 0 0 -1.020062,-2.6035 3.220719,2.5765756 0 0 0 0.408124,-1.255324 3.220719,2.5765756 0 0 0 -1.710754,-2.275766 L 16.796426,0.64427 H 19.87108 A 0.32207152,0.32207152 0 0 0 20.193026,0.322324 0.32207152,0.32207152 0 0 0 19.87108,0 h -3.220592 a 0.3221037,0.3221037 0 0 0 -0.242436,0.1102 l -2.254376,2.576324 a 0.32207152,0.32207152 0 0 0 -0.0604,0.10216 3.220719,2.5765756 0 0 0 -0.863932,-0.09436 3.220719,2.5765756 0 0 0 -0.863682,0.09436 0.32207152,0.32207152 0 0 0 -0.06026,-0.10216 L 10.050528,0.1102 A 0.3221037,0.3221037 0 0 0 9.8085975,0 Z m 2.990992,10.295858 a 3.832656,3.832656 0 0 0 0.7763705,1.368806 c -0.288366,0.30764 -0.5540645,0.65823 -0.7927245,1.044468 -0.353744,0.572484 -0.651752,1.22595 -0.884818,1.939604 -0.683106,0.61877 -1.454554,1.146236 -2.243054,1.553996 -1.267294,0.65536 -2.56082,0.99172 -3.49964,0.93426 -0.469408,-0.02872 -0.842084,-0.15256 -1.097434,-0.354152 -0.25535,-0.201588 -0.415058,-0.477826 -0.45694,-0.910608 -0.0836,-0.86378 0.430662,-1.671012 1.346538,-2.42938 0.915874,-0.758368 2.206798,-1.42997 3.515868,-1.976086 1.257982,-0.524802 2.43251,-0.90726 3.335834,-1.170908 z m 7.3017225,0 c 0.903394,0.263636 2.07799,0.64611 3.335962,1.170908 1.30907,0.546116 2.59949,1.217718 3.515366,1.976086 0.915874,0.758368 1.430756,1.5656 1.347166,2.42938 -0.04188,0.432782 -0.201716,0.70902 -0.457068,0.910608 -0.255348,0.201586 -0.628024,0.325424 -1.097432,0.354152 -0.93882,0.05746 -2.232346,-0.2789 -3.49964,-0.93426 -0.788452,-0.407734 -1.559914,-0.935152 -2.243054,-1.55387 -0.233072,-0.7137 -0.531056,-1.367216 -0.884818,-1.93973 -0.238678,-0.386264 -0.504424,-0.736814 -0.79285,-1.044468 a 3.832656,3.832656 0 0 0 0.776368,-1.368806 z m -6.08112,2.87034 h 4.86052 c 0.425912,0.681468 0.962794,1.305826 1.564438,1.86047 0.07092,0.23186 0.13486,0.4708 0.1911,0.716106 H 9.0432955 c 0.05624,-0.245248 0.1201,-0.484168 0.19098,-0.71598 0.601762,-0.55468 1.1388065,-1.179066 1.5648165,-1.860596 z M 8.7530555,18.31935 h 8.9522165 c 7e-5,0.017 7.56e-4,0.0337 7.56e-4,0.0507 0,0.8874 -0.09586,1.73763 -0.26873,2.525876 H 9.0211555 c -0.17286,-0.788248 -0.268854,-1.638474 -0.268854,-2.525876 0,-0.017 6.82e-4,-0.03372 7.54e-4,-0.0507 z m 1.227522,5.153148 h 6.4972985 c -0.04242,0.0745 -0.0853,0.14832 -0.12946,0.21979 -0.82992,1.343104 -1.934864,2.122154 -3.11919,2.122154 -1.184326,0 -2.2894,-0.77905 -3.119318,-2.122154 -0.04416,-0.07146 -0.08692,-0.1453 -0.1293405,-0.21979 z"
       style="fill:#ffffff;stroke:none;stroke-width:0.264582"
       id="circle839" />
  </g>
</svg>
