<?xml version="1.0" encoding="UTF-8" standalone="no"?>
<svg
   xmlns:dc="http://purl.org/dc/elements/1.1/"
   xmlns:cc="http://creativecommons.org/ns#"
   xmlns:rdf="http://www.w3.org/1999/02/22-rdf-syntax-ns#"
   xmlns:svg="http://www.w3.org/2000/svg"
   xmlns="http://www.w3.org/2000/svg"
   xmlns:sodipodi="http://sodipodi.sourceforge.net/DTD/sodipodi-0.dtd"
   xmlns:inkscape="http://www.inkscape.org/namespaces/inkscape"
   width="100"
   height="100"
   viewBox="0 0 26.458333 26.458334"
   version="1.1"
   id="svg8"
   inkscape:version="1.0 (4035a4fb49, 2020-05-01)"
   sodipodi:docname="RallyPoint.svg"
   inkscape:export-filename="C:\Users\GGPC\Desktop\Games\bee-game\Icons\RallyPoint3.png"
   inkscape:export-xdpi="96"
   inkscape:export-ydpi="96">
  <defs
     id="defs2">
    <filter
       inkscape:collect="always"
       style="color-interpolation-filters:sRGB"
       id="filter1416"
       x="-0.108"
       width="1.216"
       y="-0.108"
       height="1.216">
      <feGaussianBlur
         inkscape:collect="always"
         stdDeviation="0.47624999"
         id="feGaussianBlur1418" />
    </filter>
    <filter
       inkscape:collect="always"
       style="color-interpolation-filters:sRGB"
       id="filter1503"
       x="-0.10800005"
       width="1.2160001"
       y="-0.10799995"
       height="1.2159999">
      <feGaussianBlur
         inkscape:collect="always"
         stdDeviation="1.071563"
         id="feGaussianBlur1505" />
    </filter>
    <filter
       inkscape:collect="always"
       style="color-interpolation-filters:sRGB"
       id="filter1556"
       x="-0.108"
       width="1.216"
       y="-0.108"
       height="1.216">
      <feGaussianBlur
         inkscape:collect="always"
         stdDeviation="0.17859375"
         id="feGaussianBlur1558" />
    </filter>
    <filter
       inkscape:collect="always"
       style="color-interpolation-filters:sRGB"
       id="filter1566"
       x="-0.10800005"
       width="1.2160001"
       y="-0.10799995"
       height="1.2159999">
      <feGaussianBlur
         inkscape:collect="always"
         stdDeviation="4.0500019"
         id="feGaussianBlur1568" />
    </filter>
    <filter
       height="1.216"
       y="-0.108"
       width="1.216"
       x="-0.108"
       id="filter864"
       style="color-interpolation-filters:sRGB"
       inkscape:collect="always">
      <feGaussianBlur
         id="feGaussianBlur866"
         stdDeviation="0.17859375"
         inkscape:collect="always" />
    </filter>
  </defs>
  <sodipodi:namedview
     id="base"
     pagecolor="#ffffff"
     bordercolor="#666666"
     borderopacity="1.0"
     inkscape:pageopacity="0.0"
     inkscape:pageshadow="2"
     inkscape:zoom="5.7165118"
     inkscape:cx="65.953587"
     inkscape:cy="47.026374"
     inkscape:document-units="px"
     inkscape:current-layer="layer1"
     inkscape:document-rotation="0"
     showgrid="false"
     units="px"
     inkscape:window-width="1920"
     inkscape:window-height="1017"
     inkscape:window-x="-8"
     inkscape:window-y="-8"
     inkscape:window-maximized="1"
     showguides="false" />
  <metadata
     id="metadata5">
    <rdf:RDF>
      <cc:Work
         rdf:about="">
        <dc:format>image/svg+xml</dc:format>
        <dc:type
           rdf:resource="http://purl.org/dc/dcmitype/StillImage" />
        <dc:title />
      </cc:Work>
    </rdf:RDF>
  </metadata>
  <g
     inkscape:label="Type 1"
     inkscape:groupmode="layer"
     id="layer1"
     style="display:inline">
    <circle
       style="fill:#bef202;fill-opacity:1;stroke-width:2.64583;stroke-linecap:round;stroke-linejoin:round"
       id="path840"
       cx="13.229167"
       cy="13.229167"
       r="5.2916665" />
    <circle
       r="5.2916665"
       cy="13.229167"
       cx="13.229167"
       id="circle842"
       style="fill:#bef202;fill-opacity:1;stroke-width:2.64583;stroke-linecap:round;stroke-linejoin:round;filter:url(#filter1416)" />
    <path
       id="path1494"
       style="fill:#bef202;fill-opacity:1;stroke-width:2.64583;stroke-linecap:round;stroke-linejoin:round"
       d="M 13.183175,1.3229282 A 11.90625,11.90625 0 0 0 1.3229169,13.229179 11.90625,11.90625 0 0 0 13.229167,25.135428 11.90625,11.90625 0 0 0 25.135417,13.229179 11.90625,11.90625 0 0 0 13.229167,1.3229282 a 11.90625,11.90625 0 0 0 -0.04599,0 z m -0.0072,1.984375 a 9.9218749,9.9218749 0 0 1 0.05323,0 9.9218749,9.9218749 0 0 1 9.921875,9.9218758 9.9218749,9.9218749 0 0 1 -9.921875,9.921874 A 9.9218749,9.9218749 0 0 1 3.3072919,13.229179 9.9218749,9.9218749 0 0 1 13.17594,3.3073032 Z" />
    <path
       d="M 13.183174,1.3229287 A 11.90625,11.90625 0 0 0 1.3229164,13.229179 11.90625,11.90625 0 0 0 13.229166,25.135428 11.90625,11.90625 0 0 0 25.135417,13.229179 11.90625,11.90625 0 0 0 13.229166,1.3229287 a 11.90625,11.90625 0 0 0 -0.04599,0 z m -0.0072,1.984375 a 9.9218749,9.9218749 0 0 1 0.05323,0 9.9218749,9.9218749 0 0 1 9.921876,9.9218753 9.9218749,9.9218749 0 0 1 -9.921876,9.921874 9.9218749,9.9218749 0 0 1 -9.9219126,-9.921874 9.9218749,9.9218749 0 0 1 9.8686476,-9.9218753 z"
       style="fill:#bef202;fill-opacity:1;stroke-width:2.64583;stroke-linecap:round;stroke-linejoin:round;filter:url(#filter1503)"
       id="path1501" />
    <circle
       style="fill:#bef202;fill-opacity:1;stroke-width:2.64583;stroke-linecap:round;stroke-linejoin:round;filter:url(#filter1416)"
       id="circle868"
       cx="50.071274"
       cy="13.229167"
       r="5.2916665" />
    <path
       id="path870"
       style="fill:#bef202;fill-opacity:1;stroke-width:2.64583;stroke-linecap:round;stroke-linejoin:round;filter:url(#filter1503)"
       d="M 50.025281,1.3229282 A 11.90625,11.90625 0 0 0 38.165023,13.229179 11.90625,11.90625 0 0 0 50.071273,25.135428 11.90625,11.90625 0 0 0 61.977523,13.229179 11.90625,11.90625 0 0 0 50.071273,1.3229282 a 11.90625,11.90625 0 0 0 -0.04599,0 z m -0.0072,1.984375 a 9.9218749,9.9218749 0 0 1 0.05323,0 9.9218749,9.9218749 0 0 1 9.921875,9.9218758 9.9218749,9.9218749 0 0 1 -9.921875,9.921874 9.9218749,9.9218749 0 0 1 -9.921913,-9.921874 9.9218749,9.9218749 0 0 1 9.868648,-9.9218758 z" />
    <circle
       r="5.2916665"
       cy="-15.929787"
       cx="13.229167"
       id="circle872"
       style="fill:#bef202;fill-opacity:1;stroke-width:2.64583;stroke-linecap:round;stroke-linejoin:round" />
    <path
       d="m 13.183175,-27.836025 a 11.90625,11.90625 0 0 0 -11.8602581,11.906251 11.90625,11.90625 0 0 0 11.9062501,11.9062487 11.90625,11.90625 0 0 0 11.90625,-11.9062487 11.90625,11.90625 0 0 0 -11.90625,-11.906251 11.90625,11.90625 0 0 0 -0.04599,0 z m -0.0072,1.984375 a 9.9218749,9.9218749 0 0 1 0.05323,0 9.9218749,9.9218749 0 0 1 9.921875,9.921876 9.9218749,9.9218749 0 0 1 -9.921875,9.9218737 9.9218749,9.9218749 0 0 1 -9.9219131,-9.9218737 9.9218749,9.9218749 0 0 1 9.8686481,-9.921876 z"
       style="fill:#bef202;fill-opacity:1;stroke-width:2.64583;stroke-linecap:round;stroke-linejoin:round"
       id="path874" />
  </g>
  <g
     style="display:none"
     inkscape:label="Type 4"
     id="layer4"
     inkscape:groupmode="layer">
    <circle
       r="1.984375"
       cy="13.229167"
       cx="13.229167"
       id="circle850"
       style="display:inline;fill:#bef202;fill-opacity:1;stroke-width:2.64583;stroke-linecap:round;stroke-linejoin:round" />
    <path
       d="M 13.183175,1.322928 A 11.90625,11.90625 0 0 0 1.3229168,13.229179 11.90625,11.90625 0 0 0 13.229167,25.135428 11.90625,11.90625 0 0 0 25.135417,13.229179 11.90625,11.90625 0 0 0 13.229167,1.322928 a 11.90625,11.90625 0 0 0 -0.04599,0 z m -0.0072,1.984375 a 9.9218749,9.9218749 0 0 1 0.05323,0 9.9218749,9.9218749 0 0 1 9.921875,9.921876 9.9218749,9.9218749 0 0 1 -9.921875,9.921874 A 9.9218749,9.9218749 0 0 1 3.3072918,13.229179 9.9218749,9.9218749 0 0 1 13.17594,3.307303 Z"
       style="display:inline;fill:#bef202;fill-opacity:1;stroke-width:2.64583;stroke-linecap:round;stroke-linejoin:round"
       id="path854" />
    <path
       id="path856"
       style="display:inline;fill:#bef202;fill-opacity:1;stroke-width:2.64583;stroke-linecap:round;stroke-linejoin:round;filter:url(#filter1503)"
       d="M 13.183175,1.3229287 A 11.90625,11.90625 0 0 0 1.3229169,13.229179 11.90625,11.90625 0 0 0 13.229167,25.135428 11.90625,11.90625 0 0 0 25.135417,13.229179 11.90625,11.90625 0 0 0 13.229167,1.3229287 a 11.90625,11.90625 0 0 0 -0.04599,0 z m -0.0072,1.984375 a 9.9218749,9.9218749 0 0 1 0.05323,0 9.9218749,9.9218749 0 0 1 9.921875,9.9218753 9.9218749,9.9218749 0 0 1 -9.921875,9.921874 A 9.9218749,9.9218749 0 0 1 3.3072919,13.229179 9.9218749,9.9218749 0 0 1 13.17594,3.3073037 Z" />
    <circle
       style="display:inline;fill:#bef202;fill-opacity:1;stroke-width:2.64583;stroke-linecap:round;stroke-linejoin:round;filter:url(#filter864)"
       id="circle862"
       cx="13.229167"
       cy="13.229167"
       r="1.984375" />
  </g>
  <g
     inkscape:groupmode="layer"
     id="layer2"
     inkscape:label="Type 2"
     style="display:none">
    <path
       id="path1507"
       style="fill:#bef202;fill-opacity:1;stroke-width:9.99999;stroke-linecap:round;stroke-linejoin:round"
       d="M 49.826172,5 A 45,45 0 0 0 5,49.998047 44.999999,44.999999 0 0 0 5,50 45,45 0 0 0 50,95 45,45 0 0 0 95,50 45,45 0 0 0 50,5 45,45 0 0 0 49.826172,5 Z m -8.328125,8.476562 A 44.999999,44.999999 0 0 0 41.417969,13.582031 19.999999,19.999999 0 0 1 50,29.917969 19.999999,19.999999 0 0 1 58.580078,13.580078 44.999999,44.999999 0 0 0 58.501953,13.476562 37.499999,37.499999 0 0 1 86.523438,41.498047 44.999999,44.999999 0 0 0 86.417969,41.417969 19.999999,19.999999 0 0 1 70.082031,50 19.999999,19.999999 0 0 1 86.419922,58.580078 44.999999,44.999999 0 0 0 86.523438,58.5 37.499999,37.499999 0 0 1 58.501953,86.523438 44.999999,44.999999 0 0 0 58.582031,86.417969 19.999999,19.999999 0 0 1 50,70.082031 19.999999,19.999999 0 0 1 41.419922,86.419922 44.999999,44.999999 0 0 0 41.498047,86.521484 37.499999,37.499999 0 0 1 13.476562,58.501953 44.999999,44.999999 0 0 0 13.582031,58.582031 19.999999,19.999999 0 0 1 29.917969,50 19.999999,19.999999 0 0 1 13.580078,41.419922 44.999999,44.999999 0 0 0 13.478516,41.498047 37.499999,37.499999 0 0 1 41.498047,13.476562 Z"
       transform="scale(0.26458333)" />
    <circle
       style="fill:#bef202;fill-opacity:1;stroke-width:2.64583;stroke-linecap:round;stroke-linejoin:round"
       id="path1548"
       cx="13.229167"
       cy="13.229167"
       r="1.984375" />
    <circle
       r="1.984375"
       cy="13.229167"
       cx="13.229167"
       id="circle1550"
       style="fill:#bef202;fill-opacity:1;stroke-width:2.64583;stroke-linecap:round;stroke-linejoin:round;filter:url(#filter1556)" />
    <path
       transform="scale(0.26458333)"
       d="M 49.826172,5 A 45,45 0 0 0 5,49.998047 44.999999,44.999999 0 0 0 5,50 45,45 0 0 0 50,95 45,45 0 0 0 95,50 45,45 0 0 0 50,5 45,45 0 0 0 49.826172,5 Z m -8.328125,8.476562 A 44.999999,44.999999 0 0 0 41.417969,13.582031 19.999999,19.999999 0 0 1 50,29.917969 19.999999,19.999999 0 0 1 58.580078,13.580078 44.999999,44.999999 0 0 0 58.501953,13.476562 37.499999,37.499999 0 0 1 86.523438,41.498047 44.999999,44.999999 0 0 0 86.417969,41.417969 19.999999,19.999999 0 0 1 70.082031,50 19.999999,19.999999 0 0 1 86.419922,58.580078 44.999999,44.999999 0 0 0 86.523438,58.5 37.499999,37.499999 0 0 1 58.501953,86.523438 44.999999,44.999999 0 0 0 58.582031,86.417969 19.999999,19.999999 0 0 1 50,70.082031 19.999999,19.999999 0 0 1 41.419922,86.419922 44.999999,44.999999 0 0 0 41.498047,86.521484 37.499999,37.499999 0 0 1 13.476562,58.501953 44.999999,44.999999 0 0 0 13.582031,58.582031 19.999999,19.999999 0 0 1 29.917969,50 19.999999,19.999999 0 0 1 13.580078,41.419922 44.999999,44.999999 0 0 0 13.478516,41.498047 37.499999,37.499999 0 0 1 41.498047,13.476562 Z"
       style="fill:#bef202;fill-opacity:1;stroke-width:9.99999;stroke-linecap:round;stroke-linejoin:round;filter:url(#filter1566)"
       id="path1560" />
  </g>
  <g
     inkscape:groupmode="layer"
     id="layer3"
     inkscape:label="Type 3"
     style="display:none">
    <path
       id="path1570"
       style="display:inline;fill:#ff00ff;fill-opacity:1;stroke-width:9.99999;stroke-linecap:round;stroke-linejoin:round"
       d="M 49.826172,5 A 44.999999,44.999999 0 0 0 5,50 44.999999,44.999999 0 0 0 50,95 44.999999,44.999999 0 0 0 95,50 44.999999,44.999999 0 0 0 50,5 44.999999,44.999999 0 0 0 49.826172,5 Z M 34,18 a 16.000001,16.000001 0 0 1 16,16 16.000001,16.000001 0 0 1 16,-16 16.000001,16.000001 0 0 1 4.626953,0.683594 37.499999,37.499999 0 0 1 10.6875,10.685547 A 16.000001,16.000001 0 0 1 82,34 16.000001,16.000001 0 0 1 66,50 16.000001,16.000001 0 0 1 82,66 16.000001,16.000001 0 0 1 81.316406,70.626953 37.499999,37.499999 0 0 1 70.630859,81.314453 16.000001,16.000001 0 0 1 66,82 16.000001,16.000001 0 0 1 50,66 16.000001,16.000001 0 0 1 34,82 16.000001,16.000001 0 0 1 29.373047,81.316406 37.499999,37.499999 0 0 1 18.685547,70.630859 16.000001,16.000001 0 0 1 18,66 16.000001,16.000001 0 0 1 34,50 16.000001,16.000001 0 0 1 18,34 16.000001,16.000001 0 0 1 18.683594,29.369141 37.499999,37.499999 0 0 1 29.369141,18.685547 16.000001,16.000001 0 0 1 34,18 Z"
       transform="scale(0.26458333)" />
  </g>
</svg>
