<?xml version="1.0" encoding="UTF-8" standalone="no"?>
<svg
   xmlns:dc="http://purl.org/dc/elements/1.1/"
   xmlns:cc="http://creativecommons.org/ns#"
   xmlns:rdf="http://www.w3.org/1999/02/22-rdf-syntax-ns#"
   xmlns:svg="http://www.w3.org/2000/svg"
   xmlns="http://www.w3.org/2000/svg"
   xmlns:xlink="http://www.w3.org/1999/xlink"
   xmlns:sodipodi="http://sodipodi.sourceforge.net/DTD/sodipodi-0.dtd"
   xmlns:inkscape="http://www.inkscape.org/namespaces/inkscape"
   sodipodi:docname="SeasonIcons.svg"
   inkscape:version="1.0 (4035a4fb49, 2020-05-01)"
   id="svg8"
   version="1.1"
   viewBox="0 0 52.916665 52.916668"
   height="200"
   width="200">
  <defs
     id="defs2">
    <linearGradient
       id="linearGradient993"
       inkscape:collect="always">
      <stop
         id="stop989"
         offset="0"
         style="stop-color:#f78e62;stop-opacity:1" />
      <stop
         id="stop991"
         offset="1"
         style="stop-color:#f575a4;stop-opacity:1" />
    </linearGradient>
    <linearGradient
       id="linearGradient951"
       inkscape:collect="always">
      <stop
         id="stop947"
         offset="0"
         style="stop-color:#2db200;stop-opacity:1" />
      <stop
         id="stop949"
         offset="1"
         style="stop-color:#00805f;stop-opacity:1" />
    </linearGradient>
    <linearGradient
       id="linearGradient943"
       inkscape:collect="always">
      <stop
         id="stop939"
         offset="0"
         style="stop-color:#f78e62;stop-opacity:1" />
      <stop
         id="stop941"
         offset="1"
         style="stop-color:#f575a4;stop-opacity:1" />
    </linearGradient>
    <linearGradient
       gradientUnits="userSpaceOnUse"
       y2="41.796024"
       x2="-48.887318"
       y1="10.139721"
       x1="-48.887318"
       id="linearGradient945"
       xlink:href="#linearGradient943"
       inkscape:collect="always" />
    <linearGradient
       gradientTransform="matrix(0.26458333,0,0,0.26458333,186.51112,9.9999978e-8)"
       gradientUnits="userSpaceOnUse"
       y2="190.96281"
       x2="-406.26562"
       y1="10"
       x1="-406.26562"
       id="linearGradient953"
       xlink:href="#linearGradient951"
       inkscape:collect="always" />
    <linearGradient
       gradientTransform="scale(0.26458333)"
       gradientUnits="userSpaceOnUse"
       y2="140"
       x2="100"
       y1="60"
       x1="100"
       id="linearGradient995"
       xlink:href="#linearGradient993"
       inkscape:collect="always" />
  </defs>
  <sodipodi:namedview
     inkscape:window-maximized="1"
     inkscape:window-y="-8"
     inkscape:window-x="-8"
     inkscape:window-height="1017"
     inkscape:window-width="1920"
     units="px"
     showgrid="false"
     inkscape:document-rotation="0"
     inkscape:current-layer="layer1"
     inkscape:document-units="px"
     inkscape:cy="80.576482"
     inkscape:cx="202.03372"
     inkscape:zoom="1.414489"
     inkscape:pageshadow="2"
     inkscape:pageopacity="0.0"
     borderopacity="1.0"
     bordercolor="#666666"
     pagecolor="#ffffff"
     id="base" />
  <metadata
     id="metadata5">
    <rdf:RDF>
      <cc:Work
         rdf:about="">
        <dc:format>image/svg+xml</dc:format>
        <dc:type
           rdf:resource="http://purl.org/dc/dcmitype/StillImage" />
        <dc:title></dc:title>
      </cc:Work>
    </rdf:RDF>
  </metadata>
  <g
     id="layer1"
     inkscape:groupmode="layer"
     inkscape:label="Layer 1">
    <path
       d="M 79.020013,2.6458334 73.728346,7.9375 H 84.311679 Z M 62.182278,9.6206013 v 7.4832637 l 7.483267,-7.4832637 z m 26.1922,0 7.483782,7.4832637 V 9.6206013 Z m -9.354465,0.9627317 a 15.875,15.875 0 0 0 -0.05995,5.17e-4 15.875,15.875 0 0 0 -0.05219,0 15.875,15.875 0 0 0 -0.01137,0 15.875,15.875 0 0 0 -0.115755,0.0015 15.875,15.875 0 0 0 -0.04548,5.17e-4 15.875,15.875 0 0 0 -0.02739,5.17e-4 15.875,15.875 0 0 0 -0.275952,0.0078 15.875,15.875 0 0 0 -0.08217,0.0036 15.875,15.875 0 0 0 -0.0186,5.16e-4 15.875,15.875 0 0 0 -0.03462,0.0016 15.875,15.875 0 0 0 -0.07803,0.0036 15.875,15.875 0 0 0 -0.02739,0.0015 15.875,15.875 0 0 0 -0.128675,0.0072 15.875,15.875 0 0 0 -0.01602,0.001 15.875,15.875 0 0 0 -0.0078,5.17e-4 15.875,15.875 0 0 0 -5.16e-4,0 15.875,15.875 0 0 0 -0.106455,0.0072 15.875,15.875 0 0 0 -0.01757,10e-4 15.875,15.875 0 0 0 -0.09405,0.0067 15.875,15.875 0 0 0 -0.01447,10e-4 15.875,15.875 0 0 0 -0.158128,0.01292 15.875,15.875 0 0 0 -0.0041,5.17e-4 15.875,15.875 0 0 0 -5.16e-4,0 15.875,15.875 0 0 0 -0.0036,5.17e-4 15.875,15.875 0 0 0 -0.01808,0.0015 15.875,15.875 0 0 0 -0.149347,0.01395 15.875,15.875 0 0 0 -0.130225,0.01344 15.875,15.875 0 0 0 -0.01137,10e-4 15.875,15.875 0 0 0 -0.07338,0.0083 15.875,15.875 0 0 0 -0.02119,0.0021 15.875,15.875 0 0 0 -0.106452,0.0124 15.875,15.875 0 0 0 -0.154512,0.01912 15.875,15.875 0 0 0 -0.06563,0.0088 15.875,15.875 0 0 0 -0.08217,0.01137 15.875,15.875 0 0 0 -0.0155,0.0021 15.875,15.875 0 0 0 -0.425297,0.06563 15.875,15.875 0 0 0 -0.0062,10e-4 15.875,15.875 0 0 0 -0.07648,0.01292 15.875,15.875 0 0 0 -0.112654,0.02015 15.875,15.875 0 0 0 -0.04961,0.0093 15.875,15.875 0 0 0 -0.0026,5.17e-4 15.875,15.875 0 0 0 -0.0067,10e-4 15.875,15.875 0 0 0 -0.04031,0.0078 15.875,15.875 0 0 0 -0.01447,0.0026 15.875,15.875 0 0 0 -0.139009,0.02687 15.875,15.875 0 0 0 -0.125574,0.02532 15.875,15.875 0 0 0 -0.09147,0.01912 15.875,15.875 0 0 0 -0.0026,5.17e-4 15.875,15.875 0 0 0 -0.09664,0.02067 15.875,15.875 0 0 0 -0.0041,10e-4 15.875,15.875 0 0 0 -0.0036,0.001 15.875,15.875 0 0 0 -0.06459,0.01395 15.875,15.875 0 0 0 -0.08268,0.01912 15.875,15.875 0 0 0 -0.0041,10e-4 15.875,15.875 0 0 0 -0.0062,10e-4 15.875,15.875 0 0 0 -0.109034,0.02584 15.875,15.875 0 0 0 -0.0036,10e-4 15.875,15.875 0 0 0 -0.03307,0.0078 15.875,15.875 0 0 0 -0.0031,5.16e-4 15.875,15.875 0 0 0 -0.0067,0.0016 15.875,15.875 0 0 0 -0.08216,0.02015 15.875,15.875 0 0 0 -0.104905,0.02635 15.875,15.875 0 0 0 -0.01395,0.0036 15.875,15.875 0 0 0 -0.0026,5.17e-4 15.875,15.875 0 0 0 -0.0052,0.001 15.875,15.875 0 0 0 -0.134358,0.03566 15.875,15.875 0 0 0 -0.0124,0.0031 15.875,15.875 0 0 0 -0.0078,0.0021 15.875,15.875 0 0 0 -0.0067,0.0016 15.875,15.875 0 0 0 -0.108521,0.02946 15.875,15.875 0 0 0 -0.223758,0.06305 15.875,15.875 0 0 0 -0.05736,0.01705 15.875,15.875 0 0 0 -0.02532,0.0072 15.875,15.875 0 0 0 -0.04496,0.01343 15.875,15.875 0 0 0 -0.01395,0.0041 15.875,15.875 0 0 0 -0.118337,0.03617 15.875,15.875 0 0 0 -0.01085,0.0031 15.875,15.875 0 0 0 -0.01033,0.0031 15.875,15.875 0 0 0 -0.09715,0.03049 15.875,15.875 0 0 0 -0.109553,0.03514 15.875,15.875 0 0 0 -0.02067,0.0067 15.875,15.875 0 0 0 -0.127124,0.04237 15.875,15.875 0 0 0 -0.0088,0.0031 15.875,15.875 0 0 0 -0.07286,0.02429 15.875,15.875 0 0 0 -0.06201,0.0217 15.875,15.875 0 0 0 -0.01499,0.0052 15.875,15.875 0 0 0 -0.117822,0.04134 15.875,15.875 0 0 0 -0.02274,0.0083 15.875,15.875 0 0 0 -0.04806,0.01705 15.875,15.875 0 0 0 -0.212389,0.07855 15.875,15.875 0 0 0 -0.101804,0.03876 15.875,15.875 0 0 0 -0.03359,0.01344 15.875,15.875 0 0 0 -0.01447,0.0057 15.875,15.875 0 0 0 -0.104902,0.04134 15.875,15.875 0 0 0 -0.0057,0.0021 15.875,15.875 0 0 0 -0.0026,0.001 15.875,15.875 0 0 0 -0.03049,0.0124 15.875,15.875 0 0 0 -0.01809,0.0072 15.875,15.875 0 0 0 -0.09715,0.03927 15.875,15.875 0 0 0 -0.09612,0.03979 15.875,15.875 0 0 0 -0.02946,0.0124 15.875,15.875 0 0 0 -0.0062,0.0026 15.875,15.875 0 0 0 -0.0057,0.0026 15.875,15.875 0 0 0 -0.0093,0.0041 15.875,15.875 0 0 0 -0.106971,0.04548 15.875,15.875 0 0 0 -0.01189,0.0052 15.875,15.875 0 0 0 -0.03617,0.0155 15.875,15.875 0 0 0 -0.0036,0.0016 15.875,15.875 0 0 0 -0.123508,0.05426 15.875,15.875 0 0 0 -0.01654,0.0072 15.875,15.875 0 0 0 -0.260448,0.119372 15.875,15.875 0 0 0 -0.0031,0.0015 15.875,15.875 0 0 0 -0.08578,0.04031 15.875,15.875 0 0 0 -0.0016,5.17e-4 15.875,15.875 0 0 0 -0.0047,0.0021 15.875,15.875 0 0 0 -0.03256,0.01602 15.875,15.875 0 0 0 -0.0217,0.01034 15.875,15.875 0 0 0 -0.08785,0.04237 15.875,15.875 0 0 0 -0.09508,0.04703 15.875,15.875 0 0 0 -0.04496,0.02222 15.875,15.875 0 0 0 -0.07131,0.03617 15.875,15.875 0 0 0 -0.0646,0.03256 15.875,15.875 0 0 0 -0.02739,0.01447 15.875,15.875 0 0 0 -0.01085,0.0057 15.875,15.875 0 0 0 -0.0739,0.03824 15.875,15.875 0 0 0 -0.0083,0.0041 15.875,15.875 0 0 0 -0.05685,0.02997 15.875,15.875 0 0 0 -0.09973,0.05323 15.875,15.875 0 0 0 -0.03669,0.02015 15.875,15.875 0 0 0 -0.04393,0.02325 15.875,15.875 0 0 0 -0.06718,0.03721 15.875,15.875 0 0 0 -0.03101,0.01705 15.875,15.875 0 0 0 -0.05271,0.02946 15.875,15.875 0 0 0 -0.09767,0.05529 15.875,15.875 0 0 0 -0.110588,0.06356 15.875,15.875 0 0 0 -0.0041,0.0026 15.875,15.875 0 0 0 -0.07286,0.04238 15.875,15.875 0 0 0 -0.0021,10e-4 15.875,15.875 0 0 0 -0.0036,0.0021 15.875,15.875 0 0 0 -0.0078,0.0047 15.875,15.875 0 0 0 -0.09663,0.05736 15.875,15.875 0 0 0 -0.254765,0.155547 15.875,15.875 0 0 0 -0.0708,0.04444 15.875,15.875 0 0 0 -0.0047,0.0031 15.875,15.875 0 0 0 -0.07648,0.04858 15.875,15.875 0 0 0 -0.01189,0.0078 15.875,15.875 0 0 0 -0.03307,0.02067 15.875,15.875 0 0 0 -0.08217,0.05374 15.875,15.875 0 0 0 -0.0026,0.0016 15.875,15.875 0 0 0 -0.09095,0.05994 15.875,15.875 0 0 0 -0.02274,0.01499 15.875,15.875 0 0 0 -0.105936,0.07131 15.875,15.875 0 0 0 -0.05374,0.03669 15.875,15.875 0 0 0 -0.001,10e-4 15.875,15.875 0 0 0 -0.08837,0.06046 15.875,15.875 0 0 0 -10e-4,5.17e-4 15.875,15.875 0 0 0 -0.0031,0.0021 15.875,15.875 0 0 0 -0.08113,0.05684 15.875,15.875 0 0 0 -0.03617,0.02532 15.875,15.875 0 0 0 -0.08268,0.05943 15.875,15.875 0 0 0 -0.01395,0.0098 15.875,15.875 0 0 0 -0.07648,0.05529 15.875,15.875 0 0 0 -0.02067,0.01499 15.875,15.875 0 0 0 -0.106455,0.07855 15.875,15.875 0 0 0 -0.0016,10e-4 15.875,15.875 0 0 0 -0.03152,0.02377 15.875,15.875 0 0 0 -0.01344,0.01033 15.875,15.875 0 0 0 -0.108519,0.08165 15.875,15.875 0 0 0 -0.108521,0.08371 15.875,15.875 0 0 0 -0.01137,0.0088 15.875,15.875 0 0 0 -0.0088,0.0067 15.875,15.875 0 0 0 -0.08217,0.0646 15.875,15.875 0 0 0 -0.0098,0.0072 15.875,15.875 0 0 0 -0.0041,0.0036 15.875,15.875 0 0 0 -0.0052,0.0041 15.875,15.875 0 0 0 -0.0026,0.0021 15.875,15.875 0 0 0 -0.0031,0.0026 15.875,15.875 0 0 0 -0.07493,0.05995 15.875,15.875 0 0 0 -0.02584,0.02015 15.875,15.875 0 0 0 -0.04754,0.03824 15.875,15.875 0 0 0 -0.06615,0.05478 15.875,15.875 0 0 0 -0.02584,0.02067 15.875,15.875 0 0 0 -0.04444,0.03669 15.875,15.875 0 0 0 -0.04703,0.03979 15.875,15.875 0 0 0 -0.02532,0.02119 15.875,15.875 0 0 0 -0.06098,0.05116 15.875,15.875 0 0 0 -0.07958,0.06821 15.875,15.875 0 0 0 -0.03101,0.02687 15.875,15.875 0 0 0 -0.0016,0.0016 15.875,15.875 0 0 0 -0.0894,0.07803 15.875,15.875 0 0 0 -0.01602,0.01395 15.875,15.875 0 0 0 -0.03411,0.02997 15.875,15.875 0 0 0 -0.0047,0.0041 15.875,15.875 0 0 0 -0.05891,0.05271 15.875,15.875 0 0 0 -0.01861,0.01654 15.875,15.875 0 0 0 -0.04909,0.04444 15.875,15.875 0 0 0 -0.0098,0.0083 15.875,15.875 0 0 0 -0.0016,0.0015 15.875,15.875 0 0 0 -0.05426,0.05013 15.875,15.875 0 0 0 -0.01809,0.01654 15.875,15.875 0 0 0 -0.04651,0.04289 15.875,15.875 0 0 0 -0.0062,0.0057 15.875,15.875 0 0 0 -0.06976,0.06511 15.875,15.875 0 0 0 -0.03256,0.03049 15.875,15.875 0 0 0 -0.08888,0.08475 15.875,15.875 0 0 0 -0.01085,0.01033 15.875,15.875 0 0 0 -0.03152,0.03049 15.875,15.875 0 0 0 -0.0124,0.01188 15.875,15.875 0 0 0 -0.07234,0.07028 15.875,15.875 0 0 0 -0.04341,0.04289 15.875,15.875 0 0 0 -0.0072,0.0072 15.875,15.875 0 0 0 -0.04134,0.04082 15.875,15.875 0 0 0 -0.01757,0.01757 15.875,15.875 0 0 0 -0.02118,0.02119 15.875,15.875 0 0 0 -0.09612,0.09767 15.875,15.875 0 0 0 -0.0021,0.0021 15.875,15.875 0 0 0 -0.01137,0.01189 15.875,15.875 0 0 0 -0.02791,0.02842 15.875,15.875 0 0 0 -0.001,10e-4 15.875,15.875 0 0 0 -0.05685,0.05891 15.875,15.875 0 0 0 -0.0083,0.0083 15.875,15.875 0 0 0 -0.06511,0.06821 15.875,15.875 0 0 0 -0.04651,0.04909 15.875,15.875 0 0 0 -0.05684,0.06098 15.875,15.875 0 0 0 -0.07286,0.07855 15.875,15.875 0 0 0 -0.02584,0.02842 15.875,15.875 0 0 0 -0.09043,0.09974 15.875,15.875 0 0 0 -0.05168,0.05788 15.875,15.875 0 0 0 -0.04341,0.04858 15.875,15.875 0 0 0 -0.07131,0.08216 15.875,15.875 0 0 0 -0.01705,0.01912 15.875,15.875 0 0 0 -0.03824,0.04392 15.875,15.875 0 0 0 -0.03101,0.03669 15.875,15.875 0 0 0 -0.01499,0.01757 15.875,15.875 0 0 0 -0.185002,0.220141 15.875,15.875 0 0 0 -0.03462,0.04289 15.875,15.875 0 0 0 -0.05168,0.06356 15.875,15.875 0 0 0 -0.01085,0.01292 15.875,15.875 0 0 0 -0.07751,0.09715 15.875,15.875 0 0 0 -0.01033,0.01292 15.875,15.875 0 0 0 -0.0047,0.0057 15.875,15.875 0 0 0 -0.0026,0.0036 15.875,15.875 0 0 0 -0.0036,0.0047 15.875,15.875 0 0 0 -0.06925,0.08837 15.875,15.875 0 0 0 -0.0041,0.0057 15.875,15.875 0 0 0 -0.03876,0.04961 15.875,15.875 0 0 0 -0.0052,0.0062 15.875,15.875 0 0 0 -0.04238,0.05581 15.875,15.875 0 0 0 -0.001,10e-4 15.875,15.875 0 0 0 -0.0036,0.0047 15.875,15.875 0 0 0 -0.06822,0.09043 15.875,15.875 0 0 0 -0.0026,0.0031 15.875,15.875 0 0 0 -0.0062,0.0083 15.875,15.875 0 0 0 -0.09095,0.12299 15.875,15.875 0 0 0 -0.0067,0.0088 15.875,15.875 0 0 0 -0.03307,0.04548 15.875,15.875 0 0 0 -0.04702,0.0646 15.875,15.875 0 0 0 -0.03462,0.04806 15.875,15.875 0 0 0 -0.559657,0.837159 15.875,15.875 0 0 0 -0.0015,0.0026 15.875,15.875 0 0 0 -0.0036,0.0052 15.875,15.875 0 0 0 -0.173117,0.285254 15.875,15.875 0 0 0 -0.0026,0.0041 15.875,15.875 0 0 0 -0.01757,0.02946 15.875,15.875 0 0 0 -0.03979,0.0677 15.875,15.875 0 0 0 -0.0041,0.0067 15.875,15.875 0 0 0 -0.0047,0.0088 15.875,15.875 0 0 0 -0.0072,0.01292 15.875,15.875 0 0 0 -0.04186,0.07131 15.875,15.875 0 0 0 -0.04599,0.08165 15.875,15.875 0 0 0 -0.0077,0.01292 15.875,15.875 0 0 0 -0.0041,0.0072 15.875,15.875 0 0 0 -0.05478,0.09819 15.875,15.875 0 0 0 -0.07183,0.130225 15.875,15.875 0 0 0 -0.02067,0.03824 15.875,15.875 0 0 0 -0.0021,0.0041 15.875,15.875 0 0 0 -0.01705,0.03101 15.875,15.875 0 0 0 -0.05271,0.09974 15.875,15.875 0 0 0 -0.05685,0.109037 15.875,15.875 0 0 0 -0.0047,0.0093 15.875,15.875 0 0 0 -0.03617,0.06925 15.875,15.875 0 0 0 -0.02119,0.04186 15.875,15.875 0 0 0 -0.117306,0.236678 15.875,15.875 0 0 0 -0.07183,0.150378 15.875,15.875 0 0 0 -0.06098,0.130225 15.875,15.875 0 0 0 -0.02429,0.05271 15.875,15.875 0 0 0 -0.02894,0.06356 15.875,15.875 0 0 0 -0.02997,0.06666 15.875,15.875 0 0 0 -0.01395,0.03204 15.875,15.875 0 0 0 -0.0036,0.0083 15.875,15.875 0 0 0 -0.03617,0.08217 15.875,15.875 0 0 0 -0.0015,0.0036 15.875,15.875 0 0 0 -0.0041,0.0088 15.875,15.875 0 0 0 -0.01499,0.03514 15.875,15.875 0 0 0 -0.0047,0.01034 15.875,15.875 0 0 0 -0.05788,0.135909 15.875,15.875 0 0 0 -0.06615,0.159164 15.875,15.875 0 0 0 -0.06408,0.15968 15.875,15.875 0 0 0 -0.06253,0.160714 15.875,15.875 0 0 0 -0.04393,0.116788 15.875,15.875 0 0 0 -0.0067,0.01757 15.875,15.875 0 0 0 -0.0047,0.0124 15.875,15.875 0 0 0 -0.01757,0.04651 15.875,15.875 0 0 0 -0.02635,0.07286 15.875,15.875 0 0 0 -0.02791,0.07803 15.875,15.875 0 0 0 -0.0057,0.01499 15.875,15.875 0 0 0 -0.04082,0.116272 15.875,15.875 0 0 0 -0.0047,0.01344 15.875,15.875 0 0 0 -5.16e-4,0.0015 15.875,15.875 0 0 0 -0.05374,0.158647 15.875,15.875 0 0 0 -0.03565,0.10852 15.875,15.875 0 0 0 -0.0016,0.0047 15.875,15.875 0 0 0 -0.0016,0.0047 15.875,15.875 0 0 0 -0.07958,0.251147 15.875,15.875 0 0 0 -0.0021,0.0067 15.875,15.875 0 0 0 -0.02067,0.0677 15.875,15.875 0 0 0 -0.01964,0.06614 15.875,15.875 0 0 0 -0.0036,0.01189 15.875,15.875 0 0 0 -0.03979,0.136942 15.875,15.875 0 0 0 -0.04651,0.165882 15.875,15.875 0 0 0 -0.03566,0.131775 15.875,15.875 0 0 0 -0.01964,0.07441 15.875,15.875 0 0 0 -0.01395,0.05478 15.875,15.875 0 0 0 -0.001,0.0041 15.875,15.875 0 0 0 -0.02532,0.100252 15.875,15.875 0 0 0 -0.0031,0.0124 15.875,15.875 0 0 0 -0.01034,0.04237 15.875,15.875 0 0 0 -0.0067,0.02687 15.875,15.875 0 0 0 -0.06511,0.277502 15.875,15.875 0 0 0 -5.16e-4,0.0016 15.875,15.875 0 0 0 0,5.17e-4 15.875,15.875 0 0 0 -0.02429,0.110071 15.875,15.875 0 0 0 -0.02997,0.141077 15.875,15.875 0 0 0 -0.0057,0.02739 15.875,15.875 0 0 0 -0.01188,0.05891 15.875,15.875 0 0 0 -0.02739,0.136943 15.875,15.875 0 0 0 -0.02635,0.142627 15.875,15.875 0 0 0 -0.01809,0.100769 15.875,15.875 0 0 0 -10e-4,0.0057 15.875,15.875 0 0 0 -0.04702,0.279569 15.875,15.875 0 0 0 -0.0088,0.05839 15.875,15.875 0 0 0 -0.0041,0.02687 15.875,15.875 0 0 0 -0.0016,0.0083 15.875,15.875 0 0 0 -0.0072,0.04806 15.875,15.875 0 0 0 -0.0217,0.152962 15.875,15.875 0 0 0 -0.02274,0.170533 15.875,15.875 0 0 0 -0.0155,0.124023 15.875,15.875 0 0 0 -0.01085,0.09147 15.875,15.875 0 0 0 -0.0052,0.04651 15.875,15.875 0 0 0 -0.01137,0.107487 15.875,15.875 0 0 0 -10e-4,0.0072 15.875,15.875 0 0 0 -0.0093,0.09612 15.875,15.875 0 0 0 -0.0026,0.02687 15.875,15.875 0 0 0 -0.001,0.01033 15.875,15.875 0 0 0 -10e-4,0.01137 15.875,15.875 0 0 0 -0.0016,0.01602 15.875,15.875 0 0 0 -0.0083,0.08837 15.875,15.875 0 0 0 -0.02119,0.272335 15.875,15.875 0 0 0 -5.16e-4,0.0078 15.875,15.875 0 0 0 -0.0047,0.06925 15.875,15.875 0 0 0 -5.16e-4,0.0088 15.875,15.875 0 0 0 -0.0047,0.07235 15.875,15.875 0 0 0 -0.0036,0.06615 15.875,15.875 0 0 0 -10e-4,0.01757 15.875,15.875 0 0 0 -0.01809,0.441317 15.875,15.875 0 0 0 -5.16e-4,0.01085 15.875,15.875 0 0 0 -0.0015,0.07028 15.875,15.875 0 0 0 -5.16e-4,0.04134 15.875,15.875 0 0 0 -5.19e-4,0.0093 15.875,15.875 0 0 0 0,0.0026 15.875,15.875 0 0 0 0,0.01705 15.875,15.875 0 0 0 -5.16e-4,0.02842 15.875,15.875 0 0 0 -5.16e-4,0.03927 15.875,15.875 0 0 0 -5.18e-4,0.02429 15.875,15.875 0 0 0 -0.0015,0.185518 15.875,15.875 0 0 0 5.16e-4,0.08578 15.875,15.875 0 0 0 5.16e-4,0.05374 15.875,15.875 0 0 0 0,0.01602 15.875,15.875 0 0 0 5.16e-4,0.04961 15.875,15.875 0 0 0 0.0026,0.139526 15.875,15.875 0 0 0 0.0041,0.162266 15.875,15.875 0 0 0 5.19e-4,0.0098 15.875,15.875 0 0 0 0.0041,0.112657 15.875,15.875 0 0 0 0.0072,0.165365 15.875,15.875 0 0 0 10e-4,0.02015 15.875,15.875 0 0 0 0.0052,0.09302 15.875,15.875 0 0 0 0.0052,0.08733 15.875,15.875 0 0 0 5.16e-4,0.0098 15.875,15.875 0 0 0 0.0057,0.08371 15.875,15.875 0 0 0 10e-4,0.01602 15.875,15.875 0 0 0 0.0067,0.09405 15.875,15.875 0 0 0 5.16e-4,0.0057 15.875,15.875 0 0 0 0,5.19e-4 15.875,15.875 0 0 0 0,0.001 15.875,15.875 0 0 0 0.01085,0.135393 15.875,15.875 0 0 0 0.001,0.0088 15.875,15.875 0 0 0 5.18e-4,0.0062 15.875,15.875 0 0 0 0,0.0021 15.875,15.875 0 0 0 0.0093,0.101285 15.875,15.875 0 0 0 5.18e-4,0.0078 15.875,15.875 0 0 0 0.0036,0.03566 15.875,15.875 0 0 0 5.16e-4,0.0067 15.875,15.875 0 0 0 5.19e-4,0.0067 15.875,15.875 0 0 0 0.01137,0.114723 15.875,15.875 0 0 0 0.0041,0.03979 15.875,15.875 0 0 0 0.03462,0.296622 15.875,15.875 0 0 0 0.0016,0.0124 15.875,15.875 0 0 0 0.0067,0.05529 15.875,15.875 0 0 0 0.01137,0.08372 15.875,15.875 0 0 0 0.01085,0.08113 15.875,15.875 0 0 0 0.01395,0.09715 15.875,15.875 0 0 0 0.0093,0.06201 15.875,15.875 0 0 0 0.0021,0.01395 15.875,15.875 0 0 0 0.01395,0.09095 15.875,15.875 0 0 0 0.01654,0.10387 15.875,15.875 0 0 0 0.0026,0.01499 15.875,15.875 0 0 0 0.02429,0.142111 15.875,15.875 0 0 0 0.001,0.0057 15.875,15.875 0 0 0 0,10e-4 15.875,15.875 0 0 0 5.16e-4,0.0031 15.875,15.875 0 0 0 0.0062,0.03514 15.875,15.875 0 0 0 0.02015,0.111622 15.875,15.875 0 0 0 0.0057,0.03101 15.875,15.875 0 0 0 0.01809,0.09302 15.875,15.875 0 0 0 0.0026,0.01395 15.875,15.875 0 0 0 0.0021,0.01137 15.875,15.875 0 0 0 5.19e-4,0.0016 15.875,15.875 0 0 0 0.02067,0.10542 15.875,15.875 0 0 0 0.02119,0.103352 15.875,15.875 0 0 0 0.0067,0.03152 15.875,15.875 0 0 0 0.02842,0.131776 15.875,15.875 0 0 0 10e-4,0.0041 15.875,15.875 0 0 0 5.16e-4,0.0041 15.875,15.875 0 0 0 0.0016,0.0067 15.875,15.875 0 0 0 0.0057,0.02429 15.875,15.875 0 0 0 0.0078,0.03566 15.875,15.875 0 0 0 0.01602,0.07235 15.875,15.875 0 0 0 0.0031,0.01188 15.875,15.875 0 0 0 0.0016,0.0067 15.875,15.875 0 0 0 5.15e-4,0.0036 15.875,15.875 0 0 0 0.01654,0.07131 15.875,15.875 0 0 0 0.01757,0.07286 15.875,15.875 0 0 0 0.112136,0.437697 15.875,15.875 0 0 0 0.02481,0.0894 15.875,15.875 0 0 0 0.001,0.0046 15.875,15.875 0 0 0 5.16e-4,0.0016 15.875,15.875 0 0 0 0.0067,0.02377 15.875,15.875 0 0 0 0.03617,0.127122 15.875,15.875 0 0 0 10e-4,0.0031 15.875,15.875 0 0 0 0.001,0.0052 15.875,15.875 0 0 0 0.0093,0.03204 15.875,15.875 0 0 0 0.04289,0.143661 15.875,15.875 0 0 0 0.04651,0.152445 15.875,15.875 0 0 0 0.0041,0.0124 15.875,15.875 0 0 0 0.03411,0.106971 15.875,15.875 0 0 0 0.03824,0.117821 15.875,15.875 0 0 0 0.02429,0.0739 15.875,15.875 0 0 0 0.03462,0.101286 15.875,15.875 0 0 0 0.02377,0.06821 15.875,15.875 0 0 0 0.0186,0.05219 15.875,15.875 0 0 0 0.01344,0.03927 15.875,15.875 0 0 0 0.02222,0.06201 15.875,15.875 0 0 0 0.0031,0.0083 15.875,15.875 0 0 0 0.02222,0.06201 15.875,15.875 0 0 0 0.04547,0.122473 15.875,15.875 0 0 0 0.04289,0.112654 15.875,15.875 0 0 0 0.0062,0.01705 15.875,15.875 0 0 0 0.10542,0.266653 15.875,15.875 0 0 0 0.02894,0.07131 15.875,15.875 0 0 0 0.01344,0.03255 15.875,15.875 0 0 0 0.04548,0.109556 15.875,15.875 0 0 0 0.04444,0.103352 15.875,15.875 0 0 0 0.0052,0.01188 15.875,15.875 0 0 0 0.0155,0.03617 15.875,15.875 0 0 0 0.0016,0.0036 15.875,15.875 0 0 0 0.03462,0.07855 15.875,15.875 0 0 0 0.0057,0.01292 15.875,15.875 0 0 0 0.04082,0.09198 15.875,15.875 0 0 0 0.02222,0.04858 15.875,15.875 0 0 0 0.0026,0.0062 15.875,15.875 0 0 0 0.02946,0.0646 15.875,15.875 0 0 0 0.06356,0.13694 15.875,15.875 0 0 0 0.0078,0.01551 15.875,15.875 0 0 0 0.0041,0.0088 15.875,15.875 0 0 0 0.05323,0.111104 15.875,15.875 0 0 0 0.01447,0.02997 15.875,15.875 0 0 0 0.02636,0.05374 15.875,15.875 0 0 0 0.06925,0.14056 15.875,15.875 0 0 0 0.03617,0.07028 15.875,15.875 0 0 0 0.0093,0.01912 15.875,15.875 0 0 0 0.02791,0.05374 15.875,15.875 0 0 0 0,5.18e-4 15.875,15.875 0 0 0 0.0021,0.0041 15.875,15.875 0 0 0 0.01809,0.03411 15.875,15.875 0 0 0 0.0072,0.01447 15.875,15.875 0 0 0 0.06511,0.123505 15.875,15.875 0 0 0 0.07752,0.144177 15.875,15.875 0 0 0 0.0031,0.0057 15.875,15.875 0 0 0 0.001,0.0016 15.875,15.875 0 0 0 0.0072,0.01344 15.875,15.875 0 0 0 0.01912,0.03514 15.875,15.875 0 0 0 0.03617,0.06563 15.875,15.875 0 0 0 0.05323,0.09457 15.875,15.875 0 0 0 0.04082,0.07131 15.875,15.875 0 0 0 0.0057,0.0098 15.875,15.875 0 0 0 0.06046,0.104905 15.875,15.875 0 0 0 0.0016,0.0026 15.875,15.875 0 0 0 0.001,0.0021 15.875,15.875 0 0 0 0.05271,0.08992 15.875,15.875 0 0 0 0.06253,0.104902 15.875,15.875 0 0 0 0.0078,0.01292 15.875,15.875 0 0 0 0.08475,0.137978 15.875,15.875 0 0 0 0.08423,0.134874 15.875,15.875 0 0 0 0.03721,0.05839 15.875,15.875 0 0 0 0.0041,0.0062 15.875,15.875 0 0 0 0.03101,0.04909 15.875,15.875 0 0 0 0.165364,0.251664 15.875,15.875 0 0 0 0.0021,0.0031 15.875,15.875 0 0 0 0.03256,0.04857 15.875,15.875 0 0 0 0.05478,0.07958 15.875,15.875 0 0 0 0.0155,0.02274 15.875,15.875 0 0 0 0.03462,0.05064 15.875,15.875 0 0 0 0.02377,0.03411 15.875,15.875 0 0 0 0.0739,0.104389 15.875,15.875 0 0 0 0.0041,0.0062 15.875,15.875 0 0 0 0.0015,0.0026 15.875,15.875 0 0 0 0.0016,0.0021 15.875,15.875 0 0 0 0.03462,0.04806 15.875,15.875 0 0 0 0.01085,0.01499 15.875,15.875 0 0 0 0.03617,0.05013 15.875,15.875 0 0 0 0.0088,0.0124 15.875,15.875 0 0 0 0.06511,0.08888 15.875,15.875 0 0 0 0.02791,0.03772 15.875,15.875 0 0 0 10e-4,10e-4 15.875,15.875 0 0 0 0.06304,0.08475 15.875,15.875 0 0 0 0.05684,0.07545 15.875,15.875 0 0 0 0.01447,0.0186 15.875,15.875 0 0 0 0.08217,0.106971 15.875,15.875 0 0 0 0.01499,0.0186 15.875,15.875 0 0 0 0.0016,0.0026 15.875,15.875 0 0 0 0.0041,0.0052 15.875,15.875 0 0 0 0.0067,0.0083 15.875,15.875 0 0 0 0.0956,0.121439 15.875,15.875 0 0 0 0.08992,0.112138 15.875,15.875 0 0 0 0.05478,0.06615 15.875,15.875 0 0 0 0.02067,0.02584 15.875,15.875 0 0 0 0.03669,0.04444 15.875,15.875 0 0 0 0.03979,0.04703 15.875,15.875 0 0 0 0.02119,0.02532 15.875,15.875 0 0 0 0.0584,0.06976 15.875,15.875 0 0 0 0.01809,0.02119 15.875,15.875 0 0 0 0.101801,0.117824 15.875,15.875 0 0 0 0.105936,0.120406 15.875,15.875 0 0 0 0.0078,0.0088 15.875,15.875 0 0 0 0.07545,0.08371 15.875,15.875 0 0 0 0.07958,0.08785 15.875,15.875 0 0 0 0.06408,0.06976 15.875,15.875 0 0 0 0.03876,0.04186 15.875,15.875 0 0 0 0.08578,0.09043 15.875,15.875 0 0 0 0.0016,0.0016 15.875,15.875 0 0 0 0.0021,0.0026 15.875,15.875 0 0 0 0.01344,0.01344 15.875,15.875 0 0 0 0.02687,0.02842 15.875,15.875 0 0 0 0.08217,0.08526 15.875,15.875 0 0 0 0.103352,0.10542 15.875,15.875 0 0 0 0.0026,0.0026 15.875,15.875 0 0 0 0.0036,0.0041 15.875,15.875 0 0 0 0.01085,0.01085 15.875,15.875 0 0 0 0.04237,0.04238 15.875,15.875 0 0 0 0.119891,0.118856 15.875,15.875 0 0 0 0.001,10e-4 15.875,15.875 0 0 0 0.0067,0.0067 15.875,15.875 0 0 0 0.32866,0.312123 15.875,15.875 0 0 0 0.08578,0.07803 15.875,15.875 0 0 0 0.0124,0.01137 15.875,15.875 0 0 0 0.0057,0.0052 15.875,15.875 0 0 0 0.0041,0.0041 15.875,15.875 0 0 0 0.05581,0.05013 15.875,15.875 0 0 0 0.0026,0.0021 15.875,15.875 0 0 0 0.0088,0.0078 15.875,15.875 0 0 0 0.02997,0.02687 15.875,15.875 0 0 0 0.08992,0.0801 15.875,15.875 0 0 0 0.01654,0.01447 15.875,15.875 0 0 0 0.09302,0.08062 15.875,15.875 0 0 0 0.001,10e-4 15.875,15.875 0 0 0 0.05943,0.05116 15.875,15.875 0 0 0 0.07286,0.06201 15.875,15.875 0 0 0 0.06511,0.05426 15.875,15.875 0 0 0 0.0708,0.0584 15.875,15.875 0 0 0 0.0057,0.0047 15.875,15.875 0 0 0 0.06563,0.05374 15.875,15.875 0 0 0 0.0026,0.0026 15.875,15.875 0 0 0 0.04134,0.03359 15.875,15.875 0 0 0 0.08165,0.06511 15.875,15.875 0 0 0 0.04341,0.03462 15.875,15.875 0 0 0 0.162782,0.127124 15.875,15.875 0 0 0 0.09198,0.07028 15.875,15.875 0 0 0 0.02274,0.01705 15.875,15.875 0 0 0 0.01344,0.01034 15.875,15.875 0 0 0 0.114721,0.0863 15.875,15.875 0 0 0 0.0072,0.0052 15.875,15.875 0 0 0 0.117306,0.08578 15.875,15.875 0 0 0 0.03152,0.02274 15.875,15.875 0 0 0 0.0072,0.0052 15.875,15.875 0 0 0 0.08682,0.06253 15.875,15.875 0 0 0 0.05013,0.03566 15.875,15.875 0 0 0 5.16e-4,0 15.875,15.875 0 0 0 0.03204,0.02274 15.875,15.875 0 0 0 0.0925,0.06408 15.875,15.875 0 0 0 0.123505,0.08423 15.875,15.875 0 0 0 0.01499,0.01033 15.875,15.875 0 0 0 0.0031,0.0021 15.875,15.875 0 0 0 0.0026,0.0021 15.875,15.875 0 0 0 0.123504,0.08268 15.875,15.875 0 0 0 0.02636,0.01705 15.875,15.875 0 0 0 0.0021,0.0016 15.875,15.875 0 0 0 0.133842,0.08682 15.875,15.875 0 0 0 0.145208,0.0925 15.875,15.875 0 0 0 0.146762,0.09095 15.875,15.875 0 0 0 0.124024,0.07545 15.875,15.875 0 0 0 0.0124,0.0072 15.875,15.875 0 0 0 0.0062,0.0036 15.875,15.875 0 0 0 0.0047,0.0031 15.875,15.875 0 0 0 0.01809,0.01033 15.875,15.875 0 0 0 0.02222,0.01344 15.875,15.875 0 0 0 0.04444,0.02636 15.875,15.875 0 0 0 0.0026,0.0016 15.875,15.875 0 0 0 0.0083,0.0052 15.875,15.875 0 0 0 0.08113,0.04702 15.875,15.875 0 0 0 0.01189,0.0072 15.875,15.875 0 0 0 0.01137,0.0067 15.875,15.875 0 0 0 0.09767,0.05581 15.875,15.875 0 0 0 0.121441,0.06873 15.875,15.875 0 0 0 0.06356,0.03514 15.875,15.875 0 0 0 0.0052,0.0031 15.875,15.875 0 0 0 0.05788,0.03152 15.875,15.875 0 0 0 0.07441,0.04031 15.875,15.875 0 0 0 0.112138,0.05994 15.875,15.875 0 0 0 0.02481,0.01292 15.875,15.875 0 0 0 0.0098,0.0052 15.875,15.875 0 0 0 0.130741,0.06821 15.875,15.875 0 0 0 0.01085,0.0057 15.875,15.875 0 0 0 0.11317,0.05736 15.875,15.875 0 0 0 0.05116,0.02584 15.875,15.875 0 0 0 0.114205,0.05581 15.875,15.875 0 0 0 0.01447,0.0072 15.875,15.875 0 0 0 0.0067,0.0031 15.875,15.875 0 0 0 0.01395,0.0072 15.875,15.875 0 0 0 0.07648,0.03669 15.875,15.875 0 0 0 0.269232,0.126092 15.875,15.875 0 0 0 0.04651,0.02067 15.875,15.875 0 0 0 0.02842,0.01292 15.875,15.875 0 0 0 0.08371,0.03721 15.875,15.875 0 0 0 0.0072,0.0036 15.875,15.875 0 0 0 0.0067,0.0026 15.875,15.875 0 0 0 0.0124,0.0057 15.875,15.875 0 0 0 0.0057,0.0026 15.875,15.875 0 0 0 0.405143,0.171566 15.875,15.875 0 0 0 0.0041,0.0016 15.875,15.875 0 0 0 0.09095,0.03721 15.875,15.875 0 0 0 0.267168,0.103871 15.875,15.875 0 0 0 0.02687,0.01033 15.875,15.875 0 0 0 0.115755,0.04289 15.875,15.875 0 0 0 0.09457,0.03411 15.875,15.875 0 0 0 0.01395,0.0052 15.875,15.875 0 0 0 0.0041,0.0016 15.875,15.875 0 0 0 0.03721,0.01344 15.875,15.875 0 0 0 0.09405,0.03307 15.875,15.875 0 0 0 0.001,5.19e-4 15.875,15.875 0 0 0 0.0057,0.0021 15.875,15.875 0 0 0 0.07183,0.02481 15.875,15.875 0 0 0 0.0072,0.0026 15.875,15.875 0 0 0 0.05374,0.01809 15.875,15.875 0 0 0 0.02532,0.0088 15.875,15.875 0 0 0 0.248566,0.08165 15.875,15.875 0 0 0 0.0088,0.0031 15.875,15.875 0 0 0 0.06253,0.01964 15.875,15.875 0 0 0 0.09302,0.02894 15.875,15.875 0 0 0 0.06149,0.01861 15.875,15.875 0 0 0 0.0956,0.02894 15.875,15.875 0 0 0 0.06098,0.01757 15.875,15.875 0 0 0 0.0031,10e-4 15.875,15.875 0 0 0 0.0052,0.0016 15.875,15.875 0 0 0 0.286287,0.0801 15.875,15.875 0 0 0 0.0047,0.0015 15.875,15.875 0 0 0 0.108518,0.02894 15.875,15.875 0 0 0 0.148313,0.03824 15.875,15.875 0 0 0 0.06046,0.01499 15.875,15.875 0 0 0 0.03307,0.0083 15.875,15.875 0 0 0 0.120923,0.02946 15.875,15.875 0 0 0 0.126605,0.02946 15.875,15.875 0 0 0 0.0088,0.0021 15.875,15.875 0 0 0 0.01085,0.0026 15.875,15.875 0 0 0 0.103354,0.02325 15.875,15.875 0 0 0 0.110069,0.02377 15.875,15.875 0 0 0 0.0052,10e-4 15.875,15.875 0 0 0 0.0124,0.0031 15.875,15.875 0 0 0 0.0987,0.02067 15.875,15.875 0 0 0 0.03979,0.0078 15.875,15.875 0 0 0 0.0093,0.0021 15.875,15.875 0 0 0 0.06718,0.01344 15.875,15.875 0 0 0 0.077,0.01499 15.875,15.875 0 0 0 0.111106,0.02119 15.875,15.875 0 0 0 0.04496,0.0083 15.875,15.875 0 0 0 0.159163,0.02791 15.875,15.875 0 0 0 0.128159,0.0217 15.875,15.875 0 0 0 0.08268,0.01292 15.875,15.875 0 0 0 0.01137,0.0021 15.875,15.875 0 0 0 0.04548,0.0067 15.875,15.875 0 0 0 0.03359,0.0052 15.875,15.875 0 0 0 0.07493,0.01137 15.875,15.875 0 0 0 0.0093,0.0016 15.875,15.875 0 0 0 0.03721,0.0052 15.875,15.875 0 0 0 0.0186,0.0026 15.875,15.875 0 0 0 0.294039,0.03979 15.875,15.875 0 0 0 0.02325,0.0026 15.875,15.875 0 0 0 0.001,0 15.875,15.875 0 0 0 0.140044,0.01654 15.875,15.875 0 0 0 0.0067,10e-4 15.875,15.875 0 0 0 0.03049,0.0031 15.875,15.875 0 0 0 0.01963,0.0021 15.875,15.875 0 0 0 0.0067,10e-4 15.875,15.875 0 0 0 0.08837,0.0093 15.875,15.875 0 0 0 0.0124,0.0016 15.875,15.875 0 0 0 0.08992,0.0088 15.875,15.875 0 0 0 0.02687,0.0026 15.875,15.875 0 0 0 0.01033,10e-4 15.875,15.875 0 0 0 0.0041,5.16e-4 15.875,15.875 0 0 0 0.0016,0 15.875,15.875 0 0 0 0.0057,5.18e-4 15.875,15.875 0 0 0 0.01602,0.0015 15.875,15.875 0 0 0 0.07596,0.0067 15.875,15.875 0 0 0 0.01033,10e-4 15.875,15.875 0 0 0 0.271817,0.0217 15.875,15.875 0 0 0 0.0832,0.0052 15.875,15.875 0 0 0 0.031,0.0021 15.875,15.875 0 0 0 0.04651,0.0031 15.875,15.875 0 0 0 0.0987,0.0057 15.875,15.875 0 0 0 0.04651,0.0026 15.875,15.875 0 0 0 0.0155,5.15e-4 15.875,15.875 0 0 0 0.01395,10e-4 15.875,15.875 0 0 0 0.142626,0.0062 15.875,15.875 0 0 0 0.119891,0.0041 15.875,15.875 0 0 0 0.01188,5.16e-4 15.875,15.875 0 0 0 0.01034,5.16e-4 15.875,15.875 0 0 0 0.07183,0.0021 15.875,15.875 0 0 0 0.0186,5.15e-4 15.875,15.875 0 0 0 0.01085,0 15.875,15.875 0 0 0 0.02584,5.16e-4 15.875,15.875 0 0 0 0.03979,10e-4 15.875,15.875 0 0 0 0.03566,0.001 15.875,15.875 0 0 0 0.0248,5.18e-4 15.875,15.875 0 0 0 0.141595,0.0016 15.875,15.875 0 0 0 0.0062,0 15.875,15.875 0 0 0 0.0021,0 15.875,15.875 0 0 0 0.0057,0 15.875,15.875 0 0 0 0.05168,5.16e-4 15.875,15.875 0 0 0 0.05995,0 15.875,15.875 0 0 0 0.05994,-5.16e-4 15.875,15.875 0 0 0 0.05271,0 15.875,15.875 0 0 0 0.02635,-5.19e-4 15.875,15.875 0 0 0 0.09612,-10e-4 15.875,15.875 0 0 0 0.04961,-5.18e-4 15.875,15.875 0 0 0 0.01499,-5.16e-4 15.875,15.875 0 0 0 0.04496,-5.16e-4 15.875,15.875 0 0 0 0.172599,-0.0047 15.875,15.875 0 0 0 0.07183,-0.0026 15.875,15.875 0 0 0 0.04031,-0.0016 15.875,15.875 0 0 0 0.05375,-0.0026 15.875,15.875 0 0 0 0.0062,0 15.875,15.875 0 0 0 0.01395,-5.16e-4 15.875,15.875 0 0 0 0.05994,-0.0031 15.875,15.875 0 0 0 0.05219,-0.0026 15.875,15.875 0 0 0 0.01033,-5.16e-4 15.875,15.875 0 0 0 0.147794,-0.0083 15.875,15.875 0 0 0 0.0031,0 15.875,15.875 0 0 0 0.05684,-0.0036 15.875,15.875 0 0 0 0.0553,-0.0041 15.875,15.875 0 0 0 0.0072,-5.16e-4 15.875,15.875 0 0 0 0.104904,-0.0072 15.875,15.875 0 0 0 0.0047,-5.16e-4 15.875,15.875 0 0 0 0.0093,-5.16e-4 15.875,15.875 0 0 0 0.158647,-0.01292 15.875,15.875 0 0 0 0.0036,-5.16e-4 15.875,15.875 0 0 0 5.19e-4,0 15.875,15.875 0 0 0 0.0031,-5.19e-4 15.875,15.875 0 0 0 0.02326,-0.0021 15.875,15.875 0 0 0 0.144693,-0.01344 15.875,15.875 0 0 0 0.112138,-0.01137 15.875,15.875 0 0 0 0.02687,-0.0031 15.875,15.875 0 0 0 0.0026,0 15.875,15.875 0 0 0 0.02997,-0.0031 15.875,15.875 0 0 0 0.04341,-0.0052 15.875,15.875 0 0 0 0.02119,-0.0021 15.875,15.875 0 0 0 0.106452,-0.0124 15.875,15.875 0 0 0 0.154514,-0.01912 15.875,15.875 0 0 0 0.01654,-0.0021 15.875,15.875 0 0 0 0.111619,-0.01499 15.875,15.875 0 0 0 0.02584,-0.0036 15.875,15.875 0 0 0 0.143142,-0.02119 15.875,15.875 0 0 0 0.0015,0 15.875,15.875 0 0 0 0.0057,-10e-4 15.875,15.875 0 0 0 0.05323,-0.0078 15.875,15.875 0 0 0 0.254249,-0.04134 15.875,15.875 0 0 0 0.02687,-0.0041 15.875,15.875 0 0 0 0.05891,-0.01033 15.875,15.875 0 0 0 0.07545,-0.01395 15.875,15.875 0 0 0 0.02274,-0.0041 15.875,15.875 0 0 0 0.01292,-0.0021 15.875,15.875 0 0 0 0.05891,-0.01085 15.875,15.875 0 0 0 0.02274,-0.0041 15.875,15.875 0 0 0 0.136427,-0.02635 15.875,15.875 0 0 0 0.0093,-0.0021 15.875,15.875 0 0 0 5.19e-4,0 15.875,15.875 0 0 0 0.110069,-0.02222 15.875,15.875 0 0 0 0.112654,-0.02325 15.875,15.875 0 0 0 0.08165,-0.01757 15.875,15.875 0 0 0 0.02273,-0.0052 15.875,15.875 0 0 0 0.01034,-0.0021 15.875,15.875 0 0 0 0.109553,-0.02481 15.875,15.875 0 0 0 0.02274,-0.0052 15.875,15.875 0 0 0 0.03566,-0.0083 15.875,15.875 0 0 0 0.09302,-0.02222 15.875,15.875 0 0 0 0.01654,-0.0036 15.875,15.875 0 0 0 0.0584,-0.01395 15.875,15.875 0 0 0 0.04134,-0.01034 15.875,15.875 0 0 0 0.0677,-0.01654 15.875,15.875 0 0 0 0.05788,-0.01499 15.875,15.875 0 0 0 0.153477,-0.03979 15.875,15.875 0 0 0 0.01344,-0.0036 15.875,15.875 0 0 0 0.274402,-0.07596 15.875,15.875 0 0 0 0.05788,-0.01654 15.875,15.875 0 0 0 0.107487,-0.03152 15.875,15.875 0 0 0 0.01602,-0.0047 15.875,15.875 0 0 0 0.31316,-0.09715 15.875,15.875 0 0 0 0.03669,-0.01188 15.875,15.875 0 0 0 0.0031,-10e-4 15.875,15.875 0 0 0 0.01757,-0.0057 15.875,15.875 0 0 0 0.0615,-0.02067 15.875,15.875 0 0 0 0.04496,-0.01447 15.875,15.875 0 0 0 0.05684,-0.01912 15.875,15.875 0 0 0 0.0708,-0.02429 15.875,15.875 0 0 0 0.03566,-0.01189 15.875,15.875 0 0 0 0.01964,-0.0067 15.875,15.875 0 0 0 0.03721,-0.01292 15.875,15.875 0 0 0 0.09147,-0.03256 15.875,15.875 0 0 0 0.01447,-0.0052 15.875,15.875 0 0 0 0.0083,-0.0031 15.875,15.875 0 0 0 0.04806,-0.01705 15.875,15.875 0 0 0 0.266649,-0.09922 15.875,15.875 0 0 0 0.05581,-0.02171 15.875,15.875 0 0 0 0.104902,-0.04082 15.875,15.875 0 0 0 0.04909,-0.01964 15.875,15.875 0 0 0 0.0067,-0.0026 15.875,15.875 0 0 0 0.02274,-0.0093 15.875,15.875 0 0 0 0.01809,-0.0072 15.875,15.875 0 0 0 0.06356,-0.02532 15.875,15.875 0 0 0 0.03359,-0.01395 15.875,15.875 0 0 0 0.0217,-0.0088 15.875,15.875 0 0 0 0.10387,-0.04341 15.875,15.875 0 0 0 0.02118,-0.0093 15.875,15.875 0 0 0 0.03411,-0.01395 15.875,15.875 0 0 0 0.08475,-0.03669 15.875,15.875 0 0 0 0.0186,-0.0078 15.875,15.875 0 0 0 0.02119,-0.0093 15.875,15.875 0 0 0 0.03359,-0.01447 15.875,15.875 0 0 0 0.102835,-0.04548 15.875,15.875 0 0 0 0.0036,-0.0016 15.875,15.875 0 0 0 0.15348,-0.06976 15.875,15.875 0 0 0 0.05426,-0.0248 15.875,15.875 0 0 0 0.05581,-0.02636 15.875,15.875 0 0 0 0.04599,-0.02119 15.875,15.875 0 0 0 0.04134,-0.01964 15.875,15.875 0 0 0 0.0047,-0.0021 15.875,15.875 0 0 0 0.0083,-0.0041 15.875,15.875 0 0 0 0.04599,-0.02222 15.875,15.875 0 0 0 0.05529,-0.02636 15.875,15.875 0 0 0 0.05375,-0.02636 15.875,15.875 0 0 0 0.07493,-0.03721 15.875,15.875 0 0 0 0.02584,-0.01292 15.875,15.875 0 0 0 0.05323,-0.02687 15.875,15.875 0 0 0 0.10025,-0.05064 15.875,15.875 0 0 0 0.03824,-0.02015 15.875,15.875 0 0 0 0.01499,-0.0072 15.875,15.875 0 0 0 0.09973,-0.05219 15.875,15.875 0 0 0 0.0041,-0.0021 15.875,15.875 0 0 0 0.127124,-0.0677 15.875,15.875 0 0 0 0.02119,-0.01137 15.875,15.875 0 0 0 0.03359,-0.0186 15.875,15.875 0 0 0 0.0186,-0.0098 15.875,15.875 0 0 0 0.02584,-0.01447 15.875,15.875 0 0 0 0.0155,-0.0083 15.875,15.875 0 0 0 0.109554,-0.06098 15.875,15.875 0 0 0 0.09818,-0.05529 15.875,15.875 0 0 0 0.03566,-0.02067 15.875,15.875 0 0 0 0.01602,-0.0088 15.875,15.875 0 0 0 0.03256,-0.01912 15.875,15.875 0 0 0 0.01964,-0.01137 15.875,15.875 0 0 0 0.07855,-0.04548 15.875,15.875 0 0 0 0.01292,-0.0078 15.875,15.875 0 0 0 0.0057,-0.0031 15.875,15.875 0 0 0 0.09663,-0.05736 15.875,15.875 0 0 0 0.0062,-0.0036 15.875,15.875 0 0 0 0.04496,-0.02687 15.875,15.875 0 0 0 0.242879,-0.149345 15.875,15.875 0 0 0 0.03617,-0.02325 15.875,15.875 0 0 0 0.01447,-0.0088 15.875,15.875 0 0 0 0.04341,-0.02791 15.875,15.875 0 0 0 0.05116,-0.03256 15.875,15.875 0 0 0 0.04961,-0.03256 15.875,15.875 0 0 0 5.16e-4,0 15.875,15.875 0 0 0 0.0041,-0.0031 15.875,15.875 0 0 0 0.03824,-0.0248 15.875,15.875 0 0 0 0.08113,-0.05323 15.875,15.875 0 0 0 0.01964,-0.01292 15.875,15.875 0 0 0 10e-4,-5.19e-4 15.875,15.875 0 0 0 0.09354,-0.06253 15.875,15.875 0 0 0 0.04961,-0.03359 15.875,15.875 0 0 0 0.03411,-0.02377 15.875,15.875 0 0 0 0.05891,-0.03979 15.875,15.875 0 0 0 0.03049,-0.02119 15.875,15.875 0 0 0 0.0031,-0.0021 15.875,15.875 0 0 0 0.0155,-0.01085 15.875,15.875 0 0 0 0.06718,-0.04754 15.875,15.875 0 0 0 0.02481,-0.01705 15.875,15.875 0 0 0 0.04857,-0.03462 15.875,15.875 0 0 0 0.05581,-0.04031 15.875,15.875 0 0 0 0.03565,-0.02532 15.875,15.875 0 0 0 0.02687,-0.01964 15.875,15.875 0 0 0 0.0217,-0.0155 15.875,15.875 0 0 0 0.09043,-0.06666 15.875,15.875 0 0 0 0.04858,-0.03566 15.875,15.875 0 0 0 0.03152,-0.02377 15.875,15.875 0 0 0 0.105936,-0.0801 15.875,15.875 0 0 0 0.08888,-0.06821 15.875,15.875 0 0 0 0.0093,-0.0072 15.875,15.875 0 0 0 0.126608,-0.09922 15.875,15.875 0 0 0 0.01085,-0.0088 15.875,15.875 0 0 0 0.03617,-0.02842 15.875,15.875 0 0 0 0.02687,-0.0217 15.875,15.875 0 0 0 0.0021,-0.0016 15.875,15.875 0 0 0 0.104902,-0.08475 15.875,15.875 0 0 0 0.08733,-0.07131 15.875,15.875 0 0 0 0.02687,-0.02274 15.875,15.875 0 0 0 0.01912,-0.0155 15.875,15.875 0 0 0 0.21704,-0.184486 15.875,15.875 0 0 0 0.04496,-0.03928 15.875,15.875 0 0 0 0.08475,-0.0739 15.875,15.875 0 0 0 0.03256,-0.02894 15.875,15.875 0 0 0 0.0124,-0.01085 15.875,15.875 0 0 0 0.05684,-0.05116 15.875,15.875 0 0 0 0.02687,-0.02377 15.875,15.875 0 0 0 0.03204,-0.02894 15.875,15.875 0 0 0 0.0015,-0.0016 15.875,15.875 0 0 0 0.01085,-0.0098 15.875,15.875 0 0 0 0.06149,-0.05684 15.875,15.875 0 0 0 0.02119,-0.01912 15.875,15.875 0 0 0 0.03152,-0.02946 15.875,15.875 0 0 0 0.0124,-0.01137 15.875,15.875 0 0 0 0.08216,-0.077 15.875,15.875 0 0 0 0.0062,-0.0057 15.875,15.875 0 0 0 0.227894,-0.219623 15.875,15.875 0 0 0 0.01395,-0.01344 15.875,15.875 0 0 0 0.02635,-0.02636 15.875,15.875 0 0 0 0.01654,-0.01602 15.875,15.875 0 0 0 0.04238,-0.04238 15.875,15.875 0 0 0 0.02119,-0.02119 15.875,15.875 0 0 0 0.05788,-0.05839 15.875,15.875 0 0 0 0.04031,-0.04134 15.875,15.875 0 0 0 0.0015,-0.0016 15.875,15.875 0 0 0 0.03773,-0.03876 15.875,15.875 0 0 0 0.001,-10e-4 15.875,15.875 0 0 0 0.03979,-0.04082 15.875,15.875 0 0 0 0.02532,-0.02636 15.875,15.875 0 0 0 0.01602,-0.01654 15.875,15.875 0 0 0 0.03204,-0.0341 15.875,15.875 0 0 0 0.197922,-0.211873 15.875,15.875 0 0 0 0.0057,-0.0057 15.875,15.875 0 0 0 0.0155,-0.01705 15.875,15.875 0 0 0 0.100253,-0.110588 15.875,15.875 0 0 0 0.07493,-0.08423 15.875,15.875 0 0 0 0.0072,-0.0088 15.875,15.875 0 0 0 0.01395,-0.01551 15.875,15.875 0 0 0 0.09199,-0.105418 15.875,15.875 0 0 0 0.09147,-0.106455 15.875,15.875 0 0 0 0.0078,-0.0093 15.875,15.875 0 0 0 5.16e-4,-5.19e-4 15.875,15.875 0 0 0 0.0124,-0.01447 15.875,15.875 0 0 0 0.02222,-0.02635 15.875,15.875 0 0 0 0.01654,-0.01964 15.875,15.875 0 0 0 0.06718,-0.08113 15.875,15.875 0 0 0 0.0031,-0.0031 15.875,15.875 0 0 0 0.0015,-0.0021 15.875,15.875 0 0 0 0.0062,-0.0072 15.875,15.875 0 0 0 0.03204,-0.03876 15.875,15.875 0 0 0 0.03359,-0.04134 15.875,15.875 0 0 0 0.07493,-0.0925 15.875,15.875 0 0 0 0.07028,-0.08785 15.875,15.875 0 0 0 0.03721,-0.04703 15.875,15.875 0 0 0 0.02739,-0.03566 15.875,15.875 0 0 0 0.07803,-0.100769 15.875,15.875 0 0 0 0.06821,-0.0894 15.875,15.875 0 0 0 0.0036,-0.0052 15.875,15.875 0 0 0 0.01034,-0.01344 15.875,15.875 0 0 0 0.0863,-0.114721 15.875,15.875 0 0 0 0.0031,-0.0047 15.875,15.875 0 0 0 0.0021,-0.0026 15.875,15.875 0 0 0 0.08578,-0.117306 15.875,15.875 0 0 0 0.01395,-0.01912 15.875,15.875 0 0 0 0.01395,-0.01964 15.875,15.875 0 0 0 0.02119,-0.02894 15.875,15.875 0 0 0 0.04134,-0.05788 15.875,15.875 0 0 0 0.02377,-0.03359 15.875,15.875 0 0 0 0.03462,-0.04909 15.875,15.875 0 0 0 0.06408,-0.09199 15.875,15.875 0 0 0 0.0341,-0.04961 15.875,15.875 0 0 0 0.06304,-0.09302 15.875,15.875 0 0 0 0.0016,-0.0021 15.875,15.875 0 0 0 0.08268,-0.123507 15.875,15.875 0 0 0 0.01137,-0.01757 15.875,15.875 0 0 0 0.03307,-0.05013 15.875,15.875 0 0 0 0.05271,-0.08165 15.875,15.875 0 0 0 0.0083,-0.0124 15.875,15.875 0 0 0 0.02325,-0.03669 15.875,15.875 0 0 0 0.0093,-0.01395 15.875,15.875 0 0 0 0.02067,-0.03256 15.875,15.875 0 0 0 0.03979,-0.06253 15.875,15.875 0 0 0 0.02119,-0.03462 15.875,15.875 0 0 0 0.0052,-0.0083 15.875,15.875 0 0 0 0.0052,-0.0078 15.875,15.875 0 0 0 0.05891,-0.0956 15.875,15.875 0 0 0 0.08165,-0.13436 15.875,15.875 0 0 0 0.0078,-0.01292 15.875,15.875 0 0 0 0.03101,-0.05168 15.875,15.875 0 0 0 0.02584,-0.04392 15.875,15.875 0 0 0 0.146762,-0.254249 15.875,15.875 0 0 0 0.03772,-0.06821 15.875,15.875 0 0 0 0.01705,-0.02997 15.875,15.875 0 0 0 0.02377,-0.04289 15.875,15.875 0 0 0 0.0052,-0.0093 15.875,15.875 0 0 0 0.0098,-0.0186 15.875,15.875 0 0 0 0.04444,-0.0801 15.875,15.875 0 0 0 0.187584,-0.358635 15.875,15.875 0 0 0 0.05064,-0.100251 15.875,15.875 0 0 0 0.02687,-0.05374 15.875,15.875 0 0 0 0.01964,-0.04031 15.875,15.875 0 0 0 0.05581,-0.114205 15.875,15.875 0 0 0 0.04857,-0.101803 15.875,15.875 0 0 0 0.02532,-0.05426 15.875,15.875 0 0 0 0.04754,-0.101803 15.875,15.875 0 0 0 0.02481,-0.05426 15.875,15.875 0 0 0 0.04651,-0.102836 15.875,15.875 0 0 0 0.01395,-0.03204 15.875,15.875 0 0 0 0.0036,-0.0083 15.875,15.875 0 0 0 0.0067,-0.01447 15.875,15.875 0 0 0 0.03101,-0.07131 15.875,15.875 0 0 0 0.0041,-0.0088 15.875,15.875 0 0 0 0.0098,-0.02274 15.875,15.875 0 0 0 0.0052,-0.0124 15.875,15.875 0 0 0 0.0047,-0.01033 15.875,15.875 0 0 0 0.05788,-0.135909 15.875,15.875 0 0 0 0.04186,-0.100769 15.875,15.875 0 0 0 0.0124,-0.02997 15.875,15.875 0 0 0 5.16e-4,-0.001 15.875,15.875 0 0 0 0.01137,-0.02739 15.875,15.875 0 0 0 0.0217,-0.05478 15.875,15.875 0 0 0 5.16e-4,-5.16e-4 15.875,15.875 0 0 0 0.0026,-0.0072 15.875,15.875 0 0 0 0.06098,-0.152964 15.875,15.875 0 0 0 0.04082,-0.104902 15.875,15.875 0 0 0 0.01964,-0.05219 15.875,15.875 0 0 0 0.0016,-0.0036 15.875,15.875 0 0 0 0.0067,-0.01809 15.875,15.875 0 0 0 0.05116,-0.136943 15.875,15.875 0 0 0 0.0026,-0.0067 15.875,15.875 0 0 0 0.03824,-0.105421 15.875,15.875 0 0 0 0.01292,-0.03617 15.875,15.875 0 0 0 0.0072,-0.02016 15.875,15.875 0 0 0 0.01654,-0.04806 15.875,15.875 0 0 0 0.03979,-0.11472 15.875,15.875 0 0 0 0.0036,-0.01137 15.875,15.875 0 0 0 0.01034,-0.02946 15.875,15.875 0 0 0 0,-5.15e-4 15.875,15.875 0 0 0 0.09302,-0.283705 15.875,15.875 0 0 0 10e-4,-0.0026 15.875,15.875 0 0 0 0.0155,-0.05013 15.875,15.875 0 0 0 0.01809,-0.05685 15.875,15.875 0 0 0 0.01757,-0.05736 15.875,15.875 0 0 0 0.03256,-0.108003 15.875,15.875 0 0 0 0.0093,-0.03152 15.875,15.875 0 0 0 0.0078,-0.02584 15.875,15.875 0 0 0 0.03152,-0.108003 15.875,15.875 0 0 0 0.0036,-0.01292 15.875,15.875 0 0 0 0,-5.16e-4 15.875,15.875 0 0 0 0.04289,-0.152445 15.875,15.875 0 0 0 0.03566,-0.131776 15.875,15.875 0 0 0 0.0093,-0.03462 15.875,15.875 0 0 0 0.01499,-0.05788 15.875,15.875 0 0 0 0.01033,-0.04082 15.875,15.875 0 0 0 0.01757,-0.06821 15.875,15.875 0 0 0 0.0057,-0.02222 15.875,15.875 0 0 0 0.03514,-0.145211 15.875,15.875 0 0 0 0.02997,-0.127641 15.875,15.875 0 0 0 0.0088,-0.03772 15.875,15.875 0 0 0 5.15e-4,-0.0021 15.875,15.875 0 0 0 0.0016,-0.0057 15.875,15.875 0 0 0 0.02481,-0.111104 15.875,15.875 0 0 0 0.01137,-0.05168 15.875,15.875 0 0 0 0.01188,-0.05633 15.875,15.875 0 0 0 5.18e-4,-0.0021 15.875,15.875 0 0 0 0.0026,-0.01137 15.875,15.875 0 0 0 0.02067,-0.0987 15.875,15.875 0 0 0 0.0077,-0.03979 15.875,15.875 0 0 0 0.0021,-0.0093 15.875,15.875 0 0 0 0.0021,-0.0098 15.875,15.875 0 0 0 0.0217,-0.11007 15.875,15.875 0 0 0 0.01137,-0.05891 15.875,15.875 0 0 0 0.02067,-0.110588 15.875,15.875 0 0 0 0.01085,-0.05891 15.875,15.875 0 0 0 0.0072,-0.04186 15.875,15.875 0 0 0 0.02222,-0.12764 15.875,15.875 0 0 0 0.0088,-0.05426 15.875,15.875 0 0 0 0.001,-0.0062 15.875,15.875 0 0 0 0.0083,-0.05064 15.875,15.875 0 0 0 0.0067,-0.04393 15.875,15.875 0 0 0 0.0026,-0.0155 15.875,15.875 0 0 0 0.01085,-0.07235 15.875,15.875 0 0 0 0.0016,-0.0083 15.875,15.875 0 0 0 0.0047,-0.03049 15.875,15.875 0 0 0 0.0057,-0.03876 15.875,15.875 0 0 0 0.0031,-0.02015 15.875,15.875 0 0 0 0.01137,-0.0801 15.875,15.875 0 0 0 0.0047,-0.03152 15.875,15.875 0 0 0 0.0026,-0.01964 15.875,15.875 0 0 0 5.16e-4,-0.0036 15.875,15.875 0 0 0 0.01964,-0.147278 15.875,15.875 0 0 0 0.0155,-0.124023 15.875,15.875 0 0 0 0.0057,-0.04703 15.875,15.875 0 0 0 0.0031,-0.03049 15.875,15.875 0 0 0 0.0016,-0.0124 15.875,15.875 0 0 0 0.0021,-0.01654 15.875,15.875 0 0 0 0.01188,-0.112139 15.875,15.875 0 0 0 0.0041,-0.03927 15.875,15.875 0 0 0 0.0021,-0.02016 15.875,15.875 0 0 0 0.0021,-0.01912 15.875,15.875 0 0 0 0.01447,-0.152445 15.875,15.875 0 0 0 0.0098,-0.112138 15.875,15.875 0 0 0 0,-0.0026 15.875,15.875 0 0 0 0.0016,-0.01602 15.875,15.875 0 0 0 0.0078,-0.09715 15.875,15.875 0 0 0 0.0031,-0.04289 15.875,15.875 0 0 0 10e-4,-0.01292 15.875,15.875 0 0 0 0.01343,-0.200504 15.875,15.875 0 0 0 0.0078,-0.143661 15.875,15.875 0 0 0 0.0031,-0.05994 15.875,15.875 0 0 0 0.0015,-0.03669 15.875,15.875 0 0 0 0.0036,-0.07545 15.875,15.875 0 0 0 0.0015,-0.05013 15.875,15.875 0 0 0 5.16e-4,-0.0052 15.875,15.875 0 0 0 0,-0.0047 15.875,15.875 0 0 0 0.0036,-0.112139 15.875,15.875 0 0 0 0.0016,-0.05994 15.875,15.875 0 0 0 0.0026,-0.112654 15.875,15.875 0 0 0 5.15e-4,-0.0248 15.875,15.875 0 0 0 0.0016,-0.139528 15.875,15.875 0 0 0 0,-0.0078 15.875,15.875 0 0 0 0,-0.0093 15.875,15.875 0 0 0 5.19e-4,-0.05064 15.875,15.875 0 0 0 0,-0.05994 15.875,15.875 0 0 0 -5.19e-4,-0.134359 15.875,15.875 0 0 0 0,-0.0062 15.875,15.875 0 0 0 -0.0021,-0.144177 15.875,15.875 0 0 0 -0.001,-0.05994 15.875,15.875 0 0 0 -0.001,-0.03669 15.875,15.875 0 0 0 0,-0.0062 15.875,15.875 0 0 0 -0.0031,-0.104387 15.875,15.875 0 0 0 -5.18e-4,-0.02274 15.875,15.875 0 0 0 0,-0.0021 15.875,15.875 0 0 0 -0.0015,-0.03462 15.875,15.875 0 0 0 -0.0026,-0.07803 15.875,15.875 0 0 0 -0.0026,-0.05374 15.875,15.875 0 0 0 0,-0.0062 15.875,15.875 0 0 0 -0.0036,-0.0739 15.875,15.875 0 0 0 -0.0015,-0.03824 15.875,15.875 0 0 0 -0.0026,-0.04548 15.875,15.875 0 0 0 -5.18e-4,-0.01447 15.875,15.875 0 0 0 -0.0016,-0.02325 15.875,15.875 0 0 0 -0.001,-0.01964 15.875,15.875 0 0 0 -0.0078,-0.125573 15.875,15.875 0 0 0 0,-0.0036 15.875,15.875 0 0 0 -0.0078,-0.112137 15.875,15.875 0 0 0 0,-0.0021 15.875,15.875 0 0 0 -0.0279,-0.33693 15.875,15.875 0 0 0 -0.001,-0.01034 15.875,15.875 0 0 0 -0.001,-0.0083 15.875,15.875 0 0 0 -5.16e-4,-0.0067 15.875,15.875 0 0 0 -5.16e-4,-0.0067 15.875,15.875 0 0 0 -0.0031,-0.03204 15.875,15.875 0 0 0 -0.01137,-0.111621 15.875,15.875 0 0 0 -10e-4,-0.01085 15.875,15.875 0 0 0 -0.03617,-0.309025 15.875,15.875 0 0 0 -0.0026,-0.02274 15.875,15.875 0 0 0 -0.0078,-0.05943 15.875,15.875 0 0 0 -0.01499,-0.111105 15.875,15.875 0 0 0 -0.0083,-0.05943 15.875,15.875 0 0 0 -0.0047,-0.03256 15.875,15.875 0 0 0 -0.02067,-0.137976 15.875,15.875 0 0 0 -0.02635,-0.166915 15.875,15.875 0 0 0 -5.16e-4,-0.0031 15.875,15.875 0 0 0 -0.0016,-0.0098 15.875,15.875 0 0 0 -0.02429,-0.14211 15.875,15.875 0 0 0 -0.001,-0.0067 15.875,15.875 0 0 0 -5.16e-4,-0.0031 15.875,15.875 0 0 0 -0.0015,-0.0083 15.875,15.875 0 0 0 -0.01964,-0.110587 15.875,15.875 0 0 0 -0.01085,-0.05891 15.875,15.875 0 0 0 -0.01809,-0.09302 15.875,15.875 0 0 0 -0.0026,-0.01395 15.875,15.875 0 0 0 -5.16e-4,-0.0036 15.875,15.875 0 0 0 -0.0016,-0.0078 15.875,15.875 0 0 0 -0.02119,-0.106971 15.875,15.875 0 0 0 -0.02119,-0.103353 15.875,15.875 0 0 0 -0.0021,-0.0098 15.875,15.875 0 0 0 -0.02325,-0.109554 15.875,15.875 0 0 0 -0.0088,-0.03876 15.875,15.875 0 0 0 -0.0041,-0.02015 15.875,15.875 0 0 0 -0.05116,-0.223759 15.875,15.875 0 0 0 -0.02687,-0.111621 15.875,15.875 0 0 0 -0.02687,-0.109554 15.875,15.875 0 0 0 -0.0047,-0.01757 15.875,15.875 0 0 0 -0.08268,-0.315743 15.875,15.875 0 0 0 -0.01447,-0.05219 15.875,15.875 0 0 0 -5.16e-4,-0.0016 15.875,15.875 0 0 0 -10e-4,-0.0036 15.875,15.875 0 0 0 -0.03049,-0.108521 15.875,15.875 0 0 0 -0.01654,-0.05736 15.875,15.875 0 0 0 -0.03204,-0.10697 15.875,15.875 0 0 0 0,-0.001 15.875,15.875 0 0 0 -0.01705,-0.05736 15.875,15.875 0 0 0 -0.01034,-0.03307 15.875,15.875 0 0 0 -0.0062,-0.02015 15.875,15.875 0 0 0 -0.02997,-0.09922 15.875,15.875 0 0 0 -0.0041,-0.0124 15.875,15.875 0 0 0 -0.143145,-0.434082 15.875,15.875 0 0 0 -0.01964,-0.05633 15.875,15.875 0 0 0 -0.0052,-0.01499 15.875,15.875 0 0 0 -0.05271,-0.147278 15.875,15.875 0 0 0 -0.03876,-0.105937 15.875,15.875 0 0 0 -0.0124,-0.03307 15.875,15.875 0 0 0 -0.0083,-0.02274 15.875,15.875 0 0 0 -0.0155,-0.04031 15.875,15.875 0 0 0 -0.0057,-0.0155 15.875,15.875 0 0 0 -0.03669,-0.0956 15.875,15.875 0 0 0 -0.0036,-0.0098 15.875,15.875 0 0 0 -0.001,-0.0021 15.875,15.875 0 0 0 -0.01292,-0.03307 15.875,15.875 0 0 0 -0.04909,-0.125057 15.875,15.875 0 0 0 -0.05581,-0.137976 15.875,15.875 0 0 0 -0.0088,-0.0217 15.875,15.875 0 0 0 -0.04341,-0.10387 15.875,15.875 0 0 0 -0.01137,-0.02635 15.875,15.875 0 0 0 -0.01189,-0.02894 15.875,15.875 0 0 0 -0.0088,-0.02015 15.875,15.875 0 0 0 -0.0041,-0.01034 15.875,15.875 0 0 0 -0.0553,-0.12764 15.875,15.875 0 0 0 -0.04547,-0.102836 15.875,15.875 0 0 0 -0.0026,-0.0052 15.875,15.875 0 0 0 -0.04444,-0.0987 15.875,15.875 0 0 0 -0.0078,-0.01809 15.875,15.875 0 0 0 -0.04134,-0.0894 15.875,15.875 0 0 0 -0.07338,-0.156063 15.875,15.875 0 0 0 -0.04858,-0.101286 15.875,15.875 0 0 0 -0.02635,-0.05374 15.875,15.875 0 0 0 -0.06925,-0.14056 15.875,15.875 0 0 0 -0.0072,-0.01395 15.875,15.875 0 0 0 -0.03824,-0.07545 15.875,15.875 0 0 0 -0.01292,-0.02481 15.875,15.875 0 0 0 -0.01551,-0.02997 15.875,15.875 0 0 0 -0.01188,-0.02325 15.875,15.875 0 0 0 -0.03514,-0.06718 15.875,15.875 0 0 0 -0.01705,-0.03256 15.875,15.875 0 0 0 -0.0279,-0.05271 15.875,15.875 0 0 0 -0.05323,-0.09922 15.875,15.875 0 0 0 -0.01602,-0.02894 15.875,15.875 0 0 0 -0.0124,-0.02377 15.875,15.875 0 0 0 -0.04444,-0.08062 15.875,15.875 0 0 0 -0.0098,-0.01809 15.875,15.875 0 0 0 -0.02894,-0.05219 15.875,15.875 0 0 0 -0.05529,-0.09767 15.875,15.875 0 0 0 -0.02377,-0.04082 15.875,15.875 0 0 0 -0.0062,-0.01137 15.875,15.875 0 0 0 -0.05581,-0.09612 15.875,15.875 0 0 0 -10e-4,-0.0021 15.875,15.875 0 0 0 -0.02946,-0.05064 15.875,15.875 0 0 0 -0.02325,-0.03927 15.875,15.875 0 0 0 -0.06253,-0.104903 15.875,15.875 0 0 0 -0.0026,-0.0041 15.875,15.875 0 0 0 -0.0052,-0.0088 15.875,15.875 0 0 0 -0.08475,-0.137976 15.875,15.875 0 0 0 -0.05943,-0.0956 15.875,15.875 0 0 0 -0.03204,-0.05064 15.875,15.875 0 0 0 -0.01189,-0.01809 15.875,15.875 0 0 0 -0.01964,-0.03101 15.875,15.875 0 0 0 -0.05374,-0.08423 15.875,15.875 0 0 0 -0.0078,-0.01188 15.875,15.875 0 0 0 -0.04651,-0.0708 15.875,15.875 0 0 0 -0.01499,-0.02325 15.875,15.875 0 0 0 -0.01344,-0.02067 15.875,15.875 0 0 0 -0.0016,-0.0021 15.875,15.875 0 0 0 -0.01809,-0.02739 15.875,15.875 0 0 0 -0.06253,-0.09353 15.875,15.875 0 0 0 -0.03359,-0.04961 15.875,15.875 0 0 0 -0.05219,-0.07545 15.875,15.875 0 0 0 -0.01137,-0.01705 15.875,15.875 0 0 0 -0.0341,-0.04909 15.875,15.875 0 0 0 -0.01292,-0.0186 15.875,15.875 0 0 0 -0.0739,-0.104387 15.875,15.875 0 0 0 -0.0057,-0.0088 15.875,15.875 0 0 0 -0.0016,-0.0021 15.875,15.875 0 0 0 -0.0052,-0.0072 15.875,15.875 0 0 0 -0.04031,-0.05581 15.875,15.875 0 0 0 -0.02532,-0.03566 15.875,15.875 0 0 0 -0.03514,-0.04857 15.875,15.875 0 0 0 -0.03566,-0.04806 15.875,15.875 0 0 0 -0.03049,-0.04237 15.875,15.875 0 0 0 -0.03566,-0.04806 15.875,15.875 0 0 0 -0.0677,-0.08992 15.875,15.875 0 0 0 -0.03617,-0.04754 15.875,15.875 0 0 0 -0.05064,-0.06563 15.875,15.875 0 0 0 -0.01809,-0.02377 15.875,15.875 0 0 0 -0.03669,-0.04754 15.875,15.875 0 0 0 -0.02945,-0.03772 15.875,15.875 0 0 0 -0.06718,-0.08475 15.875,15.875 0 0 0 -0.0098,-0.0124 15.875,15.875 0 0 0 -0.05426,-0.06718 15.875,15.875 0 0 0 -0.01654,-0.02067 15.875,15.875 0 0 0 -0.02377,-0.02894 15.875,15.875 0 0 0 -0.01395,-0.01757 15.875,15.875 0 0 0 -0.05736,-0.06976 15.875,15.875 0 0 0 -0.01395,-0.01705 15.875,15.875 0 0 0 -0.03824,-0.04599 15.875,15.875 0 0 0 -0.04547,-0.05374 15.875,15.875 0 0 0 -0.02687,-0.03256 15.875,15.875 0 0 0 -0.03876,-0.04548 15.875,15.875 0 0 0 -0.105936,-0.123506 15.875,15.875 0 0 0 -5.16e-4,-5.17e-4 15.875,15.875 0 0 0 -0.0057,-0.0067 15.875,15.875 0 0 0 -0.0155,-0.01757 15.875,15.875 0 0 0 -0.0987,-0.111621 15.875,15.875 0 0 0 -0.07493,-0.08372 15.875,15.875 0 0 0 -0.02946,-0.03204 15.875,15.875 0 0 0 -0.01085,-0.0124 15.875,15.875 0 0 0 -0.07596,-0.0832 15.875,15.875 0 0 0 -0.0077,-0.0083 15.875,15.875 0 0 0 -0.001,-0.001 15.875,15.875 0 0 0 -0.0021,-0.0026 15.875,15.875 0 0 0 -0.07751,-0.08268 15.875,15.875 0 0 0 -0.02894,-0.03152 15.875,15.875 0 0 0 -0.03617,-0.03772 15.875,15.875 0 0 0 -0.0021,-0.0026 15.875,15.875 0 0 0 -0.0031,-0.0031 15.875,15.875 0 0 0 -0.01034,-0.01034 15.875,15.875 0 0 0 -0.02687,-0.02842 15.875,15.875 0 0 0 -0.08217,-0.08527 15.875,15.875 0 0 0 -0.120922,-0.12299 15.875,15.875 0 0 0 -0.04186,-0.04237 15.875,15.875 0 0 0 -0.06149,-0.06098 15.875,15.875 0 0 0 -0.0186,-0.0186 15.875,15.875 0 0 0 -0.0093,-0.0093 15.875,15.875 0 0 0 -0.07338,-0.07131 15.875,15.875 0 0 0 -0.03721,-0.03617 15.875,15.875 0 0 0 -0.0036,-0.0036 15.875,15.875 0 0 0 -0.01447,-0.01395 15.875,15.875 0 0 0 -0.02842,-0.02739 15.875,15.875 0 0 0 -0.06925,-0.06563 15.875,15.875 0 0 0 -0.0124,-0.01189 15.875,15.875 0 0 0 -0.02946,-0.02739 15.875,15.875 0 0 0 -0.01395,-0.01343 15.875,15.875 0 0 0 -0.08268,-0.07648 15.875,15.875 0 0 0 -0.127124,-0.116272 15.875,15.875 0 0 0 -0.04444,-0.04031 15.875,15.875 0 0 0 -0.02946,-0.02635 15.875,15.875 0 0 0 -0.09922,-0.08785 15.875,15.875 0 0 0 -0.08475,-0.0739 15.875,15.875 0 0 0 -0.04547,-0.03927 15.875,15.875 0 0 0 -0.08578,-0.07286 15.875,15.875 0 0 0 -0.09508,-0.0801 15.875,15.875 0 0 0 -0.01395,-0.01137 15.875,15.875 0 0 0 -0.02274,-0.01912 15.875,15.875 0 0 0 -0.02791,-0.02274 15.875,15.875 0 0 0 -0.0186,-0.0155 15.875,15.875 0 0 0 -0.08733,-0.0708 15.875,15.875 0 0 0 -0.04651,-0.03772 15.875,15.875 0 0 0 -0.03152,-0.0248 15.875,15.875 0 0 0 -0.103351,-0.08216 15.875,15.875 0 0 0 -0.08837,-0.06925 15.875,15.875 0 0 0 -0.04754,-0.03669 15.875,15.875 0 0 0 -0.0894,-0.06821 15.875,15.875 0 0 0 -0.04806,-0.03617 15.875,15.875 0 0 0 -0.04909,-0.03669 15.875,15.875 0 0 0 -0.0062,-0.0047 15.875,15.875 0 0 0 -0.03462,-0.02584 15.875,15.875 0 0 0 -0.0124,-0.0093 15.875,15.875 0 0 0 -0.107487,-0.07855 15.875,15.875 0 0 0 -0.01912,-0.01395 15.875,15.875 0 0 0 -0.0098,-0.0067 15.875,15.875 0 0 0 -0.01395,-0.01033 15.875,15.875 0 0 0 -0.11679,-0.0832 15.875,15.875 0 0 0 -0.141076,-0.0987 15.875,15.875 0 0 0 -0.123507,-0.08423 15.875,15.875 0 0 0 -0.01809,-0.0124 15.875,15.875 0 0 0 -5.16e-4,-5.17e-4 15.875,15.875 0 0 0 -0.0021,-0.001 15.875,15.875 0 0 0 -0.01757,-0.01188 15.875,15.875 0 0 0 -0.124024,-0.08268 15.875,15.875 0 0 0 -0.05012,-0.03307 15.875,15.875 0 0 0 -0.08165,-0.05271 15.875,15.875 0 0 0 -0.0124,-0.0083 15.875,15.875 0 0 0 -0.01705,-0.01085 15.875,15.875 0 0 0 -0.03359,-0.0217 15.875,15.875 0 0 0 -0.09508,-0.05994 15.875,15.875 0 0 0 -0.145729,-0.09095 15.875,15.875 0 0 0 -5.16e-4,0 15.875,15.875 0 0 0 -0.09353,-0.05684 15.875,15.875 0 0 0 -0.01757,-0.01034 15.875,15.875 0 0 0 -0.03617,-0.02222 15.875,15.875 0 0 0 -0.179316,-0.105937 15.875,15.875 0 0 0 -5.19e-4,0 15.875,15.875 0 0 0 -0.001,-5.16e-4 15.875,15.875 0 0 0 -0.01912,-0.01137 15.875,15.875 0 0 0 -0.09767,-0.05581 15.875,15.875 0 0 0 -0.111104,-0.06253 15.875,15.875 0 0 0 -0.02222,-0.0124 15.875,15.875 0 0 0 -0.01085,-0.0062 15.875,15.875 0 0 0 -0.0062,-0.0036 15.875,15.875 0 0 0 -0.0062,-0.0036 15.875,15.875 0 0 0 -0.0046,-0.0021 15.875,15.875 0 0 0 -0.01292,-0.0072 15.875,15.875 0 0 0 -0.02842,-0.01602 15.875,15.875 0 0 0 -0.0987,-0.05374 15.875,15.875 0 0 0 -0.05271,-0.02842 15.875,15.875 0 0 0 -0.09922,-0.05271 15.875,15.875 0 0 0 -0.04341,-0.02274 15.875,15.875 0 0 0 -0.0098,-0.0052 15.875,15.875 0 0 0 -0.07028,-0.03617 15.875,15.875 0 0 0 -0.02946,-0.0155 15.875,15.875 0 0 0 -0.0072,-0.0036 15.875,15.875 0 0 0 -0.0052,-0.0026 15.875,15.875 0 0 0 -0.0067,-0.0036 15.875,15.875 0 0 0 -0.134876,-0.06821 15.875,15.875 0 0 0 -0.154512,-0.07596 15.875,15.875 0 0 0 -0.05374,-0.02636 15.875,15.875 0 0 0 -0.04599,-0.0217 15.875,15.875 0 0 0 -0.0088,-0.0047 15.875,15.875 0 0 0 -0.0046,-0.0021 15.875,15.875 0 0 0 -0.09405,-0.04444 15.875,15.875 0 0 0 -0.0021,-0.001 15.875,15.875 0 0 0 -0.05736,-0.02636 15.875,15.875 0 0 0 -0.04496,-0.02119 15.875,15.875 0 0 0 -0.05426,-0.0248 15.875,15.875 0 0 0 -0.07183,-0.03204 15.875,15.875 0 0 0 -0.03049,-0.01395 15.875,15.875 0 0 0 -0.05478,-0.02429 15.875,15.875 0 0 0 -0.0186,-0.0083 15.875,15.875 0 0 0 -0.298172,-0.127641 15.875,15.875 0 0 0 -0.10387,-0.04289 15.875,15.875 0 0 0 -0.03359,-0.01343 15.875,15.875 0 0 0 -0.02222,-0.0093 15.875,15.875 0 0 0 -0.03617,-0.01447 15.875,15.875 0 0 0 -0.124023,-0.04909 15.875,15.875 0 0 0 -0.104905,-0.04082 15.875,15.875 0 0 0 -0.03979,-0.01499 15.875,15.875 0 0 0 -0.01602,-0.0062 15.875,15.875 0 0 0 -0.10542,-0.03927 15.875,15.875 0 0 0 -0.02377,-0.0088 15.875,15.875 0 0 0 -0.03204,-0.01189 15.875,15.875 0 0 0 -0.08475,-0.03049 15.875,15.875 0 0 0 -0.02119,-0.0078 15.875,15.875 0 0 0 -0.05633,-0.02015 15.875,15.875 0 0 0 -0.05736,-0.02015 15.875,15.875 0 0 0 -0.0057,-0.0021 15.875,15.875 0 0 0 -0.04289,-0.01499 15.875,15.875 0 0 0 -0.03617,-0.0124 15.875,15.875 0 0 0 -0.02067,-0.0072 15.875,15.875 0 0 0 -0.03307,-0.01085 15.875,15.875 0 0 0 -0.28267,-0.09353 15.875,15.875 0 0 0 -0.01137,-0.0036 15.875,15.875 0 0 0 -0.107487,-0.03359 15.875,15.875 0 0 0 -0.05736,-0.01757 15.875,15.875 0 0 0 -0.107487,-0.03256 15.875,15.875 0 0 0 -0.05736,-0.01705 15.875,15.875 0 0 0 -0.02842,-0.0083 15.875,15.875 0 0 0 -0.303339,-0.08527 15.875,15.875 0 0 0 -0.108522,-0.02894 15.875,15.875 0 0 0 -10e-4,0 15.875,15.875 0 0 0 -0.0036,-10e-4 15.875,15.875 0 0 0 -0.01292,-0.0036 15.875,15.875 0 0 0 -0.120922,-0.03101 15.875,15.875 0 0 0 -0.02842,-0.0072 15.875,15.875 0 0 0 -0.05839,-0.01447 15.875,15.875 0 0 0 -0.109038,-0.02687 15.875,15.875 0 0 0 -0.02842,-0.0067 15.875,15.875 0 0 0 -0.02998,-0.0072 15.875,15.875 0 0 0 -0.105418,-0.02429 15.875,15.875 0 0 0 -0.0041,-0.001 15.875,15.875 0 0 0 -0.0062,-0.0015 15.875,15.875 0 0 0 -0.05219,-0.01189 15.875,15.875 0 0 0 -0.04703,-0.01033 15.875,15.875 0 0 0 -0.121438,-0.02635 15.875,15.875 0 0 0 -0.110072,-0.02325 15.875,15.875 0 0 0 -0.05839,-0.01189 15.875,15.875 0 0 0 -0.110588,-0.0217 15.875,15.875 0 0 0 -0.03979,-0.0078 15.875,15.875 0 0 0 -0.01912,-0.0036 15.875,15.875 0 0 0 -0.110072,-0.02067 15.875,15.875 0 0 0 -0.01344,-0.0026 15.875,15.875 0 0 0 -0.15658,-0.02739 15.875,15.875 0 0 0 -0.13901,-0.02325 15.875,15.875 0 0 0 -0.03101,-0.0052 15.875,15.875 0 0 0 -0.04444,-0.0067 15.875,15.875 0 0 0 -0.01447,-0.0026 15.875,15.875 0 0 0 -0.07131,-0.01085 15.875,15.875 0 0 0 -0.03979,-0.0062 15.875,15.875 0 0 0 -0.04548,-0.0067 15.875,15.875 0 0 0 -0.01395,-0.0021 15.875,15.875 0 0 0 -0.02325,-0.0031 15.875,15.875 0 0 0 -0.318328,-0.04289 15.875,15.875 0 0 0 -0.01654,-0.0021 15.875,15.875 0 0 0 -0.0021,0 15.875,15.875 0 0 0 -0.09302,-0.01137 15.875,15.875 0 0 0 -0.05374,-0.0062 15.875,15.875 0 0 0 -0.0057,-5.17e-4 15.875,15.875 0 0 0 -0.02222,-0.0026 15.875,15.875 0 0 0 -0.134358,-0.01447 15.875,15.875 0 0 0 -0.01499,-0.0015 15.875,15.875 0 0 0 -0.08578,-0.0083 15.875,15.875 0 0 0 -0.02584,-0.0026 15.875,15.875 0 0 0 -0.05994,-0.0057 15.875,15.875 0 0 0 -0.04444,-0.0036 15.875,15.875 0 0 0 -0.298688,-0.02377 15.875,15.875 0 0 0 -0.03256,-0.0021 15.875,15.875 0 0 0 -0.03669,-0.0021 15.875,15.875 0 0 0 -0.02791,-0.0021 15.875,15.875 0 0 0 -0.0155,-0.001 15.875,15.875 0 0 0 -0.0083,-5.17e-4 15.875,15.875 0 0 0 -0.01344,-5.16e-4 15.875,15.875 0 0 0 -0.01809,-10e-4 15.875,15.875 0 0 0 -0.01964,-0.0015 15.875,15.875 0 0 0 -0.112654,-0.0062 15.875,15.875 0 0 0 -0.0088,-5.17e-4 15.875,15.875 0 0 0 -0.0078,0 15.875,15.875 0 0 0 -0.155548,-0.0072 15.875,15.875 0 0 0 -0.124021,-0.0047 15.875,15.875 0 0 0 -0.0124,0 15.875,15.875 0 0 0 -0.03566,-0.0015 15.875,15.875 0 0 0 -0.04186,-10e-4 15.875,15.875 0 0 0 -0.01809,-5.17e-4 15.875,15.875 0 0 0 -0.07648,-0.0016 15.875,15.875 0 0 0 -0.06046,-0.0016 15.875,15.875 0 0 0 -0.03514,-5.17e-4 15.875,15.875 0 0 0 -0.105421,-10e-4 15.875,15.875 0 0 0 -0.102319,-5.17e-4 15.875,15.875 0 0 0 -0.0248,0 z M 60.499179,21.166666 55.207512,26.458333 60.499179,31.75 Z m 37.041667,0 V 31.75 l 5.291664,-5.291667 z M 62.182278,35.812801 v 7.483263 h 7.483267 z m 33.675982,0 -7.483782,7.483263 h 7.483782 z m -22.129914,9.166365 5.291667,5.291667 5.291666,-5.291667 z"
       style="fill:url(#linearGradient953);fill-opacity:1;stroke-width:0.264583;stroke-linecap:round;stroke-linejoin:round"
       id="path930" />
    <path
       id="path851"
       style="fill:#d5e6d1;stroke-width:0.264583;stroke-linecap:round;stroke-linejoin:round"
       d="m 64.851547,-65.338842 -5.291667,5.291667 h 10.583334 z m 0,7.9375 a 15.875,15.875 0 0 0 -15.875,15.875 15.875,15.875 0 0 0 15.875,15.875 15.875,15.875 0 0 0 15.875,-15.875 15.875,15.875 0 0 0 -15.875,-15.875 z m -5.291667,34.395833 5.291667,5.291667 5.291667,-5.291667 z" />
    <path
       d="m 81.689527,-24.688362 v -7.483547 l -7.483547,7.483547 z m -5.61266,-5.61266 a 15.875,15.875 0 0 0 0,-22.45064 15.875,15.875 0 0 0 -22.45064,0 15.875,15.875 0 0 0 0,22.45064 15.875,15.875 0 0 0 22.45064,0 z m -20.579753,-28.0633 h -7.483547 v 7.483547 z"
       style="fill:#d5e6d1;stroke-width:0.264583;stroke-linecap:round;stroke-linejoin:round"
       id="path853" />
    <path
       id="path855"
       style="fill:#d5e6d1;stroke-width:0.264583;stroke-linecap:round;stroke-linejoin:round"
       d="m 48.013567,-24.688362 h 7.483547 l -7.483547,-7.483547 z m 5.61266,-5.61266 a 15.875,15.875 0 0 0 22.45064,0 15.875,15.875 0 0 0 0,-22.45064 15.875,15.875 0 0 0 -22.45064,0 15.875,15.875 0 0 0 0,22.45064 z m 28.0633,-20.579753 v -7.483547 H 74.20598 Z" />
    <path
       d="m 41.039047,-41.526342 5.291667,5.291667 v -10.583334 z m 7.9375,0 a 15.875,15.875 0 0 0 15.875,15.875 15.875,15.875 0 0 0 15.875,-15.875 15.875,15.875 0 0 0 -15.875,-15.875 15.875,15.875 0 0 0 -15.875,15.875 z m 34.395833,5.291667 5.291667,-5.291667 -5.291667,-5.291667 z"
       style="fill:#d5e6d1;stroke-width:0.264583;stroke-linecap:round;stroke-linejoin:round"
       id="path857" />
    <path
       d="m 21.850345,11.267012 a 15.875,15.875 0 0 0 -2.875793,1.191142 v 6.516398 h -6.516398 a 15.875,15.875 0 0 0 -1.191142,2.875793 l 4.607988,4.607988 -4.607988,4.607989 a 15.875,15.875 0 0 0 1.191142,2.875793 h 6.516398 v 6.516396 a 15.875,15.875 0 0 0 2.875793,1.191144 l 4.607988,-4.607989 4.607988,4.607989 a 15.875,15.875 0 0 0 2.875794,-1.191144 v -6.516396 h 6.516396 a 15.875,15.875 0 0 0 1.191143,-2.875793 l -4.607988,-4.607989 4.607988,-4.607988 A 15.875,15.875 0 0 0 40.458511,18.974552 H 33.942115 V 12.458154 A 15.875,15.875 0 0 0 31.066321,11.267012 L 26.458333,15.875 Z"
       style="fill:url(#linearGradient995);fill-opacity:1;stroke-width:0.264583;stroke-linecap:round;stroke-linejoin:round"
       id="path861" />
    <path
       d="m -48.887317,10.139721 a 15.875,15.875 0 0 0 -15.875,15.874999 15.875,15.875 0 0 0 15.875,15.875 15.875,15.875 0 0 0 15.874999,-15.875 15.875,15.875 0 0 0 -15.874999,-15.874999 z m -5.291667,1.322917 h 10.583333 l -5.291666,5.291667 z m -1.256771,0.520896 V 19.4668 h -7.483263 z m 13.096358,0 7.483781,7.483266 h -7.483781 z m -21.100004,8.739521 5.291667,5.291665 -5.291667,5.291667 z m 29.104167,0 v 10.583332 l -5.291667,-5.291667 z m -28.583784,11.840102 h 7.483263 v 7.483264 z m 20.579621,0 h 7.483781 l -7.483781,7.483264 z m -6.54792,2.711979 5.291666,5.291667 h -10.583333 z"
       style="fill:url(#linearGradient945);stroke-width:0.264583;stroke-linecap:round;stroke-linejoin:round;fill-opacity:1"
       id="path894" />
    <rect
       style="fill:#2db200;fill-opacity:1;stroke-width:2.64583;stroke-linecap:round;stroke-linejoin:round"
       id="rect2372"
       width="26.458334"
       height="7.9375"
       x="-115.93872"
       y="-42.17062" />
    <rect
       y="-34.23312"
       x="-115.93872"
       height="7.9375"
       width="26.458334"
       id="rect2374"
       style="fill:#00805f;fill-opacity:1;stroke-width:2.64583;stroke-linecap:round;stroke-linejoin:round" />
    <rect
       y="-42.17062"
       x="-89.480385"
       height="7.9375"
       width="26.458334"
       id="rect926"
       style="fill:#f78e62;fill-opacity:1;stroke-width:2.64583;stroke-linecap:round;stroke-linejoin:round" />
    <rect
       style="fill:#f575a4;fill-opacity:1;stroke-width:2.64583;stroke-linecap:round;stroke-linejoin:round"
       id="rect928"
       width="26.458334"
       height="7.9375"
       x="-89.480385"
       y="-34.23312" />
  </g>
</svg>
