<?xml version="1.0" encoding="UTF-8" standalone="no"?>
<svg
   xmlns:dc="http://purl.org/dc/elements/1.1/"
   xmlns:cc="http://creativecommons.org/ns#"
   xmlns:rdf="http://www.w3.org/1999/02/22-rdf-syntax-ns#"
   xmlns:svg="http://www.w3.org/2000/svg"
   xmlns="http://www.w3.org/2000/svg"
   xmlns:xlink="http://www.w3.org/1999/xlink"
   xmlns:sodipodi="http://sodipodi.sourceforge.net/DTD/sodipodi-0.dtd"
   xmlns:inkscape="http://www.inkscape.org/namespaces/inkscape"
   inkscape:export-ydpi="96"
   inkscape:export-xdpi="96"
   inkscape:export-filename="C:\Users\GGPC\Desktop\Games\bee-game\Icons\SelectionUI\Outline.png"
   sodipodi:docname="Selection Indicator.svg"
   inkscape:version="1.0 (4035a4fb49, 2020-05-01)"
   id="svg8"
   version="1.1"
   viewBox="0 0 52.916665 52.916668"
   height="200"
   width="200">
  <defs
     id="defs2">
    <linearGradient
       id="linearGradient920"
       inkscape:collect="always">
      <stop
         id="stop916"
         offset="0"
         style="stop-color:#eafde6;stop-opacity:0" />
      <stop
         style="stop-color:#eafde6;stop-opacity:0"
         offset="0.88767838"
         id="stop924" />
      <stop
         id="stop918"
         offset="1"
         style="stop-color:#eafde6;stop-opacity:1" />
    </linearGradient>
    <inkscape:path-effect
       fuse_tolerance="0"
       hide_knot="false"
       vertical_pattern="false"
       prop_units="false"
       tang_offset="0"
       normal_offset="0"
       spacing="4"
       scale_y_rel="false"
       prop_scale="1"
       copytype="repeated_stretched"
       pattern="#rect835"
       lpeversion="1"
       is_visible="true"
       id="path-effect867"
       effect="skeletal" />
    <radialGradient
       gradientUnits="userSpaceOnUse"
       r="21.166666"
       fy="26.458334"
       fx="26.458334"
       cy="26.458334"
       cx="26.458334"
       id="radialGradient922"
       xlink:href="#linearGradient920"
       inkscape:collect="always" />
  </defs>
  <sodipodi:namedview
     inkscape:window-maximized="1"
     inkscape:window-y="-8"
     inkscape:window-x="-8"
     inkscape:window-height="1017"
     inkscape:window-width="1920"
     units="px"
     showgrid="false"
     inkscape:document-rotation="0"
     inkscape:current-layer="layer2"
     inkscape:document-units="px"
     inkscape:cy="116.3962"
     inkscape:cx="82.582129"
     inkscape:zoom="2.828978"
     inkscape:pageshadow="2"
     inkscape:pageopacity="0.0"
     borderopacity="1.0"
     bordercolor="#666666"
     pagecolor="#ffffff"
     id="base" />
  <metadata
     id="metadata5">
    <rdf:RDF>
      <cc:Work
         rdf:about="">
        <dc:format>image/svg+xml</dc:format>
        <dc:type
           rdf:resource="http://purl.org/dc/dcmitype/StillImage" />
        <dc:title></dc:title>
      </cc:Work>
    </rdf:RDF>
  </metadata>
  <g
     style="display:none"
     id="layer1"
     inkscape:groupmode="layer"
     inkscape:label="Layer 1">
    <path
       d="m -47.310665,0 a 1.3229166,1.3229166 0 0 0 -1.322917,1.3229166 1.3229166,1.3229166 0 0 0 1.322917,1.3229167 h 7.9375 A 1.3229166,1.3229166 0 0 0 -38.050249,1.3229166 1.3229166,1.3229166 0 0 0 -39.373165,0 Z"
       style="fill:#00ff00;stroke-width:2.64583;stroke-linecap:round;stroke-linejoin:round"
       id="rect835" />
  </g>
  <g
     style="display:inline"
     inkscape:label="Outside"
     id="layer3"
     inkscape:groupmode="layer">
    <path
       d="m 14.206406,4.5262514 c -0.714194,0.3875841 -0.925085,1.2252221 -0.532366,1.8423561 0.392625,0.616984 1.203362,0.794123 1.79704,0.4650856 C 17.683478,5.6075047 20.120603,4.8345224 22.636858,4.4823858 23.31564,4.3873991 23.850949,3.7559911 23.789371,3.0345289 23.727801,2.3133014 23.061457,1.776148 22.270243,1.8890235 19.465147,2.2891619 16.728669,3.1574489 14.206411,4.5262473 Z m 15.16852,-2.6767229 c -0.794012,-0.1017553 -1.457624,0.4451813 -1.512862,1.1693943 -0.05523,0.7241471 0.488184,1.3559289 1.176088,1.4450441 2.546676,0.3299062 5.050572,1.0535661 7.366072,2.1386285 0.624927,0.2928473 1.420274,0.05381 1.762958,-0.5835105 0.342744,-0.6374687 0.07941,-1.453928 -0.64402,-1.795351 -2.565711,-1.210893 -5.330321,-2.0130797 -8.148236,-2.3742054 z m 14.089031,6.2562767 c -0.601583,-0.5287489 -1.45182,-0.4421536 -1.895399,0.1265898 -0.443745,0.5689476 -0.341117,1.387544 0.170105,1.836706 1.427196,1.253948 2.678937,2.696924 3.693299,4.315179 0.341838,0.529162 0.655446,1.073648 0.941342,1.63123 0.309808,0.604223 1.078745,0.908507 1.74134,0.623051 0.662404,-0.285374 0.964086,-1.089427 0.599972,-1.812291 -0.319362,-0.634009 -0.669349,-1.255568 -1.050459,-1.862469 -1.177382,-1.825945 -2.598092,-3.4498611 -4.2002,-4.8579936 z m 7.4567,13.4811918 c -0.13454,-0.788524 -0.849192,-1.25827 -1.552106,-1.097363 -0.702676,0.160856 -1.141988,0.860464 -1.028605,1.534691 0.420836,2.502418 0.418186,5.0958 0.02442,7.634554 -0.106402,0.685949 0.349374,1.384405 1.061913,1.532475 0.712485,0.14806 1.422076,-0.338579 1.543968,-1.129706 0.432684,-2.80827 0.426944,-5.68169 -0.04959,-8.474655 z m -1.940301,15.306036 c 0.322424,-0.731854 -0.01429,-1.521998 -0.694219,-1.778876 -0.680058,-0.256937 -1.437298,0.08782 -1.714411,0.721224 -1.026037,2.345192 -2.416102,4.513841 -4.137849,6.360335 -0.463087,0.496576 -0.484481,1.320779 0.01263,1.843944 0.497299,0.523363 1.352791,0.525201 1.899674,-0.06208 1.934494,-2.077385 3.490003,-4.487438 4.634173,-7.084548 z M 38.710215,48.390435 c 0.714194,-0.387583 0.925089,-1.225218 0.532376,-1.842351 -0.392626,-0.616988 -1.203357,-0.794132 -1.797037,-0.465095 -2.212402,1.226188 -4.649535,1.999164 -7.165786,2.351296 -0.678785,0.09499 -1.214098,0.726397 -1.152514,1.447858 0.06156,0.721228 0.727915,1.258384 1.519124,1.145505 2.805089,-0.400128 5.541574,-1.268411 8.063839,-2.637208 z M 23.54169,51.06713 c 0.794017,0.101762 1.457629,-0.44517 1.512866,-1.16939 0.05523,-0.724147 -0.488185,-1.355932 -1.176085,-1.445046 -2.54668,-0.329911 -5.050571,-1.053575 -7.366069,-2.138639 -0.62493,-0.29285 -1.420272,-0.05382 -1.76296,0.5835 -0.342746,0.637475 -0.07941,1.453929 0.644018,1.795359 2.565706,1.210896 5.330314,2.013088 8.14823,2.374216 z M 9.4526702,44.810832 c 0.6015848,0.528751 1.4518208,0.442154 1.8953988,-0.126587 0.443746,-0.56895 0.341127,-1.387545 -0.170092,-1.83671 C 9.7507834,41.593598 8.4990614,40.150631 7.4847069,38.532389 7.1428617,38.003213 6.8292421,37.45871 6.543351,36.901111 6.2335455,36.296894 5.4646059,35.992609 4.8020103,36.27806 c -0.6624025,0.285375 -0.9640805,1.089436 -0.5999782,1.812288 0.3193635,0.634035 0.6693625,1.255611 1.0504853,1.862515 1.1773801,1.825928 2.5980669,3.449838 4.2001615,4.857967 z M 1.9959992,31.329628 c 0.1345381,0.788521 0.8491906,1.258269 1.5521011,1.097363 0.7026778,-0.160847 1.1419907,-0.860463 1.0286087,-1.534693 -0.4208318,-2.502413 -0.4181774,-5.0958 -0.0244,-7.634552 0.1063921,-0.685952 -0.3493659,-1.384408 -1.0619035,-1.532477 -0.7124874,-0.14806 -1.4220772,0.338578 -1.5439712,1.129698 -0.4326904,2.808273 -0.4269512,5.681694 0.04957,8.474656 z m 1.940321,-15.306036 c -0.3224318,0.731848 0.01429,1.522001 0.694217,1.77888 0.6800644,0.256928 1.4372971,-0.08782 1.7144172,-0.721223 1.0260392,-2.34519 2.4161068,-4.513837 4.1378526,-6.360328 C 10.945868,10.224315 10.96729,9.4001471 10.470176,8.876975 9.9728787,8.3536138 9.1173844,8.3517718 8.5705008,8.9390551 6.6360058,11.016439 5.0804938,13.426485 3.936321,16.023597 Z"
       style="fill:#eafde6;fill-opacity:1;stroke-width:2.64584;stroke-linecap:round;stroke-linejoin:round"
       id="path833" />
  </g>
  <g
     style="display:inline"
     inkscape:label="Middle"
     id="layer2"
     inkscape:groupmode="layer">
    <circle
       r="21.166666"
       cy="26.458334"
       cx="26.458334"
       id="path912"
       style="fill:url(#radialGradient922);fill-opacity:1;stroke-width:2.64582;stroke-linecap:round;stroke-linejoin:round" />
  </g>
</svg>
