<?xml version="1.0" encoding="UTF-8" standalone="no"?>
<svg
   xmlns:dc="http://purl.org/dc/elements/1.1/"
   xmlns:cc="http://creativecommons.org/ns#"
   xmlns:rdf="http://www.w3.org/1999/02/22-rdf-syntax-ns#"
   xmlns:svg="http://www.w3.org/2000/svg"
   xmlns="http://www.w3.org/2000/svg"
   xmlns:xlink="http://www.w3.org/1999/xlink"
   xmlns:sodipodi="http://sodipodi.sourceforge.net/DTD/sodipodi-0.dtd"
   xmlns:inkscape="http://www.inkscape.org/namespaces/inkscape"
   width="200"
   height="200"
   viewBox="0 0 52.916665 52.916668"
   version="1.1"
   id="svg8"
   inkscape:version="1.0 (4035a4fb49, 2020-05-01)"
   sodipodi:docname="Selection Indicator.svg"
   inkscape:export-filename="C:\Users\GGPC\Desktop\Games\bee-game\Icons\SelectionUI\Redstatus.png"
   inkscape:export-xdpi="96"
   inkscape:export-ydpi="96">
  <defs
     id="defs2">
    <linearGradient
       inkscape:collect="always"
       id="linearGradient920">
      <stop
         style="stop-color:#eafde6;stop-opacity:0"
         offset="0"
         id="stop916" />
      <stop
         id="stop924"
         offset="0.88767838"
         style="stop-color:#eafde6;stop-opacity:0" />
      <stop
         style="stop-color:#eafde6;stop-opacity:1"
         offset="1"
         id="stop918" />
    </linearGradient>
    <inkscape:path-effect
       effect="skeletal"
       id="path-effect867"
       is_visible="true"
       lpeversion="1"
       pattern="#rect835"
       copytype="repeated_stretched"
       prop_scale="1"
       scale_y_rel="false"
       spacing="4"
       normal_offset="0"
       tang_offset="0"
       prop_units="false"
       vertical_pattern="false"
       hide_knot="false"
       fuse_tolerance="0" />
    <radialGradient
       gradientTransform="translate(0,-58.909981)"
       inkscape:collect="always"
       xlink:href="#linearGradient920"
       id="radialGradient922"
       cx="26.458334"
       cy="26.458334"
       fx="26.458334"
       fy="26.458334"
       r="21.166666"
       gradientUnits="userSpaceOnUse" />
  </defs>
  <sodipodi:namedview
     id="base"
     pagecolor="#ffffff"
     bordercolor="#666666"
     borderopacity="1.0"
     inkscape:pageopacity="0.0"
     inkscape:pageshadow="2"
     inkscape:zoom="4.0421843"
     inkscape:cx="76.739761"
     inkscape:cy="80.685341"
     inkscape:document-units="px"
     inkscape:current-layer="layer2"
     inkscape:document-rotation="0"
     showgrid="false"
     units="px"
     inkscape:window-width="1920"
     inkscape:window-height="1017"
     inkscape:window-x="-8"
     inkscape:window-y="-8"
     inkscape:window-maximized="1" />
  <metadata
     id="metadata5">
    <rdf:RDF>
      <cc:Work
         rdf:about="">
        <dc:format>image/svg+xml</dc:format>
        <dc:type
           rdf:resource="http://purl.org/dc/dcmitype/StillImage" />
        <dc:title />
      </cc:Work>
    </rdf:RDF>
  </metadata>
  <g
     inkscape:label="Layer 1"
     inkscape:groupmode="layer"
     id="layer1"
     style="display:none">
    <path
       id="rect835"
       style="fill:#00ff00;stroke-width:2.64583;stroke-linecap:round;stroke-linejoin:round"
       d="m -47.310665,0 a 1.3229166,1.3229166 0 0 0 -1.322917,1.3229166 1.3229166,1.3229166 0 0 0 1.322917,1.3229167 h 7.9375 A 1.3229166,1.3229166 0 0 0 -38.050249,1.3229166 1.3229166,1.3229166 0 0 0 -39.373165,0 Z" />
  </g>
  <g
     inkscape:groupmode="layer"
     id="layer3"
     inkscape:label="Outside"
     style="display:inline">
    <path
       id="path833"
       style="fill:#eafde6;fill-opacity:1;stroke-width:2.64584;stroke-linecap:round;stroke-linejoin:round"
       d="m 14.206402,66.316279 c -0.714194,0.387584 -0.925085,1.225222 -0.532366,1.842356 0.392625,0.616984 1.203362,0.794123 1.79704,0.465086 2.212398,-1.226188 4.649523,-1.999171 7.165778,-2.351307 0.678782,-0.09499 1.214091,-0.726395 1.152513,-1.447857 -0.06157,-0.721228 -0.727914,-1.258381 -1.519128,-1.145506 -2.805096,0.400139 -5.541574,1.268426 -8.063832,2.637224 z m 15.16852,-2.676723 c -0.794012,-0.101755 -1.457624,0.445182 -1.512862,1.169395 -0.05523,0.724147 0.488184,1.355929 1.176088,1.445044 2.546676,0.329906 5.050572,1.053566 7.366072,2.138628 0.624927,0.292848 1.420274,0.05381 1.762958,-0.58351 0.342744,-0.637469 0.07941,-1.453928 -0.64402,-1.795351 -2.565711,-1.210893 -5.330321,-2.01308 -8.148236,-2.374206 z m 14.089031,6.256277 c -0.601583,-0.528749 -1.45182,-0.442153 -1.895399,0.12659 -0.443745,0.568948 -0.341117,1.387544 0.170105,1.836707 1.427196,1.253948 2.678937,2.696924 3.693299,4.315179 0.341838,0.529162 0.655446,1.073648 0.941342,1.63123 0.309808,0.604223 1.078745,0.908507 1.74134,0.623051 0.662404,-0.285374 0.964086,-1.089427 0.599972,-1.812291 -0.319362,-0.634009 -0.669349,-1.255568 -1.050459,-1.862469 -1.177382,-1.825945 -2.598092,-3.449862 -4.2002,-4.857995 z m 7.4567,13.481193 c -0.13454,-0.788524 -0.849192,-1.25827 -1.552106,-1.097363 -0.702676,0.160856 -1.141988,0.860464 -1.028605,1.534691 0.420836,2.502418 0.418186,5.0958 0.02442,7.634554 -0.106402,0.685949 0.349374,1.384405 1.061913,1.532475 0.712485,0.14806 1.422076,-0.338579 1.543968,-1.129706 0.432684,-2.80827 0.426944,-5.68169 -0.04959,-8.474655 z m -1.940301,15.306036 c 0.322424,-0.731854 -0.01429,-1.521998 -0.694219,-1.778876 -0.680058,-0.256937 -1.437298,0.08782 -1.714411,0.721224 -1.026037,2.345192 -2.416102,4.51384 -4.137849,6.36033 -0.463087,0.49658 -0.484481,1.32078 0.01263,1.84395 0.497299,0.52336 1.352791,0.5252 1.899674,-0.0621 1.934494,-2.07739 3.490003,-4.48744 4.634173,-7.084549 z M 38.710211,110.18046 c 0.714194,-0.38758 0.925089,-1.22521 0.532376,-1.84235 -0.392626,-0.61698 -1.203357,-0.79413 -1.797037,-0.46509 -2.212402,1.22619 -4.649535,1.99916 -7.165786,2.35129 -0.678785,0.095 -1.214098,0.7264 -1.152514,1.44786 0.06156,0.72123 0.727915,1.25839 1.519124,1.14551 2.805089,-0.40013 5.541574,-1.26841 8.063839,-2.63721 z m -15.168525,2.6767 c 0.794017,0.10176 1.457629,-0.44517 1.512866,-1.16939 0.05523,-0.72415 -0.488185,-1.35593 -1.176085,-1.44505 -2.54668,-0.32991 -5.050571,-1.05357 -7.366069,-2.13864 -0.62493,-0.29285 -1.420272,-0.0538 -1.76296,0.5835 -0.342746,0.63748 -0.07941,1.45393 0.644018,1.79536 2.565706,1.2109 5.330314,2.01309 8.14823,2.37422 z m -14.0890195,-6.2563 c 0.6015845,0.52875 1.4518205,0.44216 1.8953985,-0.12659 0.443746,-0.56895 0.341127,-1.38754 -0.170092,-1.83671 -1.4271933,-1.25393 -2.6789153,-2.6969 -3.6932698,-4.31514 C 7.142858,99.793242 6.8292384,99.248739 6.5433473,98.69114 6.2335418,98.086923 5.4646022,97.782638 4.8020066,98.068089 c -0.6624025,0.285375 -0.9640805,1.089436 -0.5999782,1.812288 0.3193635,0.634033 0.6693625,1.255613 1.0504853,1.862513 1.1773801,1.82593 2.5980669,3.44984 4.2001615,4.85797 z M 1.9959955,93.119657 c 0.1345381,0.788521 0.8491906,1.258269 1.5521011,1.097363 0.7026778,-0.160847 1.1419907,-0.860463 1.0286087,-1.534693 -0.4208318,-2.502413 -0.4181774,-5.0958 -0.0244,-7.634552 0.1063921,-0.685952 -0.3493659,-1.384408 -1.0619035,-1.532477 -0.7124874,-0.14806 -1.4220772,0.338578 -1.5439712,1.129698 -0.4326904,2.808273 -0.4269512,5.681694 0.04957,8.474656 z m 1.940321,-15.306036 c -0.3224318,0.731848 0.01429,1.522001 0.694217,1.77888 0.6800644,0.256928 1.4372971,-0.08782 1.7144172,-0.721223 1.0260392,-2.34519 2.4161068,-4.513837 4.1378523,-6.360328 0.463061,-0.496606 0.484483,-1.320775 -0.01263,-1.843947 -0.497297,-0.523361 -1.3527913,-0.525203 -1.8996749,0.06208 -1.934495,2.077385 -3.490007,4.487431 -4.6341798,7.084543 z" />
  </g>
  <g
     inkscape:groupmode="layer"
     id="layer2"
     inkscape:label="Middle"
     style="display:inline">
    <circle
       style="fill:url(#radialGradient922);fill-opacity:1;stroke-width:2.64582;stroke-linecap:round;stroke-linejoin:round"
       id="path912"
       cx="26.458334"
       cy="-32.451649"
       r="21.166666" />
    <path
       id="path860"
       style="fill:#eafde6;fill-opacity:1;stroke-width:2.64582;stroke-linecap:round;stroke-linejoin:round"
       d="M 26.442831,67.081692 A 21.166666,21.166666 0 0 0 5.2916673,88.248359 21.166666,21.166666 0 0 0 26.458334,109.41502 21.166666,21.166666 0 0 0 47.624999,88.248359 21.166666,21.166666 0 0 0 26.458334,67.081692 a 21.166666,21.166666 0 0 0 -0.0155,0 z m -0.03824,2.645834 a 18.520834,18.520834 0 0 1 0.05374,0 A 18.520834,18.520834 0 0 1 44.979166,88.248359 18.520834,18.520834 0 0 1 26.458334,106.76919 18.520834,18.520834 0 0 1 7.9375013,88.248359 18.520834,18.520834 0 0 1 26.404591,69.727526 Z" />
    <path
       transform="scale(0.26458333)"
       d="M 100 35 A 64.999998 64.999998 0 0 0 35 100 A 64.999998 64.999998 0 0 0 100 165 A 64.999998 64.999998 0 0 0 165 100 A 64.999998 64.999998 0 0 0 100 35 z M 100 45 A 54.999999 54.999999 0 0 1 155 100 A 54.999999 54.999999 0 0 1 100 155 A 54.999999 54.999999 0 0 1 45 100 A 54.999999 54.999999 0 0 1 100 45 z "
       style="opacity:0.999;fill:#f2026b;fill-opacity:1;stroke-width:10;stroke-linecap:round;stroke-linejoin:round"
       id="path864" />
    <path
       id="path858"
       style="fill:#eafde6;fill-opacity:1;stroke-width:2.64582;stroke-linecap:round;stroke-linejoin:round"
       d="M 94.295252,5.2916679 A 21.166666,21.166666 0 0 0 73.144088,26.458334 21.166666,21.166666 0 0 0 94.310755,47.625 21.166666,21.166666 0 0 0 115.47742,26.458334 21.166666,21.166666 0 0 0 94.310755,5.2916679 a 21.166666,21.166666 0 0 0 -0.0155,0 z m -0.03824,2.6458333 a 18.520834,18.520834 0 0 1 0.05374,0 A 18.520834,18.520834 0 0 1 112.83159,26.458334 18.520834,18.520834 0 0 1 94.310755,44.979167 18.520834,18.520834 0 0 1 75.789922,26.458334 18.520834,18.520834 0 0 1 94.257012,7.9375012 Z" />
  </g>
</svg>
