<?xml version="1.0" encoding="UTF-8" standalone="no"?>
<svg
   xmlns:dc="http://purl.org/dc/elements/1.1/"
   xmlns:cc="http://creativecommons.org/ns#"
   xmlns:rdf="http://www.w3.org/1999/02/22-rdf-syntax-ns#"
   xmlns:svg="http://www.w3.org/2000/svg"
   xmlns="http://www.w3.org/2000/svg"
   xmlns:sodipodi="http://sodipodi.sourceforge.net/DTD/sodipodi-0.dtd"
   xmlns:inkscape="http://www.inkscape.org/namespaces/inkscape"
   inkscape:export-ydpi="96"
   inkscape:export-xdpi="96"
   inkscape:export-filename="C:\Users\GGPC\Desktop\Games\bee-game\Textures\SoulerCoasterTexture.png"
   sodipodi:docname="SoulerCoasterTexture.svg"
   inkscape:version="1.0 (4035a4fb49, 2020-05-01)"
   id="svg1142"
   version="1.1"
   viewBox="0 0 270.93333 270.93334"
   height="1024"
   width="1024">
  <defs
     id="defs1136">
    <filter
       height="1.1604249"
       y="-0.08021247"
       width="1.3304895"
       x="-0.16524476"
       id="filter1718"
       style="color-interpolation-filters:sRGB"
       inkscape:collect="always">
      <feGaussianBlur
         id="feGaussianBlur1720"
         stdDeviation="11.381912"
         inkscape:collect="always" />
    </filter>
  </defs>
  <sodipodi:namedview
     inkscape:window-maximized="1"
     inkscape:window-y="-8"
     inkscape:window-x="-8"
     inkscape:window-height="1017"
     inkscape:window-width="1920"
     inkscape:snap-global="false"
     units="px"
     showgrid="false"
     inkscape:document-rotation="0"
     inkscape:current-layer="layer1"
     inkscape:document-units="px"
     inkscape:cy="512.58971"
     inkscape:cx="433.82422"
     inkscape:zoom="0.50009738"
     inkscape:pageshadow="2"
     inkscape:pageopacity="0.0"
     borderopacity="1.0"
     bordercolor="#666666"
     pagecolor="#ffffff"
     id="base" />
  <metadata
     id="metadata1139">
    <rdf:RDF>
      <cc:Work
         rdf:about="">
        <dc:format>image/svg+xml</dc:format>
        <dc:type
           rdf:resource="http://purl.org/dc/dcmitype/StillImage" />
        <dc:title></dc:title>
      </cc:Work>
    </rdf:RDF>
  </metadata>
  <g
     id="layer1"
     inkscape:groupmode="layer"
     inkscape:label="Layer 1">
    <path
       d="m 136.0715,-27.970384 -74.083332,6.803718 c 0,0 -21.166886,71.059594 3.02359,122.464356 24.190475,51.40476 0.756319,79.37515 -6.803203,96.76205 -7.559524,17.3869 -5.292111,87.69026 6.047174,103.56526 8.348051,11.68728 50.266721,11.49162 71.815771,10.57558 21.54905,0.91604 63.46721,1.1117 71.81526,-10.57558 11.33929,-15.875 13.60722,-86.17836 6.04769,-103.56526 -7.55952,-17.3869 -30.9942,-45.35729 -6.80372,-96.76205 24.19048,-51.404762 3.0241,-122.464356 3.0241,-122.464356 z"
       style="fill:#ffff99;stroke:none;stroke-width:0.264583px;stroke-linecap:butt;stroke-linejoin:miter;stroke-opacity:1;fill-opacity:1;filter:url(#filter1718)"
       id="path1705" />
    <rect
       y="-65.453903"
       x="-88.064636"
       height="21.08716"
       width="70.290535"
       id="rect886"
       style="fill:#1b9cfc;fill-opacity:1;stroke-width:2.64583;stroke-linecap:round;stroke-linejoin:round" />
    <rect
       style="fill:#ffff99;fill-opacity:1;stroke-width:2.64583;stroke-linecap:round;stroke-linejoin:round"
       id="rect888"
       width="70.290535"
       height="21.08716"
       x="-88.064636"
       y="-44.366741" />
    <path
       transform="matrix(0.58394333,0,0,1,57.671509,0)"
       id="path1722"
       style="fill:#1b9cfc;fill-opacity:1;stroke:none;stroke-width:0.346239px;stroke-linecap:butt;stroke-linejoin:miter;stroke-opacity:1;filter:url(#filter1718)"
       d="m 136.0715,-27.970384 -74.083332,6.803718 c 0,0 -21.166886,71.059594 3.02359,122.464356 24.190475,51.40476 0.756319,79.37515 -6.803203,96.76205 -7.559524,17.3869 -5.292111,87.69026 6.047174,103.56526 8.348051,11.68728 50.266721,11.49162 71.815771,10.57558 21.54905,0.91604 63.46721,1.1117 71.81526,-10.57558 11.33929,-15.875 13.60722,-86.17836 6.04769,-103.56526 -7.55952,-17.3869 -30.9942,-45.35729 -6.80372,-96.76205 24.19048,-51.404762 3.0241,-122.464356 3.0241,-122.464356 z" />
  </g>
</svg>
